<?xml version="1.0" standalone="no"?>
<!DOCTYPE svg PUBLIC "-//W3C//DTD SVG 20010904//EN"
 "http://www.w3.org/TR/2001/REC-SVG-20010904/DTD/svg10.dtd">
<svg version="1.0" xmlns="http://www.w3.org/2000/svg"
 width="16.000000pt" height="16.000000pt" viewBox="0 0 16.000000 16.000000"
 preserveAspectRatio="xMidYMid meet">
<metadata>
Created by potrace 1.11, written by Peter Selinger 2001-2013
</metadata>
<g transform="translate(0.000000,16.000000) scale(0.003125,-0.003125)"
fill="#000000" stroke="none">
<path d="M1739 5046 c-83 -18 -139 -46 -189 -96 l-39 -39 -38 16 c-24 10 -69
16 -123 17 -76 1 -91 -2 -138 -28 -62 -35 -116 -102 -133 -168 l-12 -45 -74
-7 c-87 -7 -162 -40 -221 -97 -46 -44 -91 -128 -95 -179 -2 -32 -6 -36 -47
-50 -199 -67 -296 -177 -284 -322 l5 -54 -57 -39 c-137 -95 -208 -265 -165
-396 14 -42 7 -63 -41 -134 -54 -81 -81 -173 -84 -294 -1 -73 2 -116 13 -145
8 -23 16 -75 18 -116 5 -140 17 -215 54 -340 61 -210 179 -419 348 -621 l76
-91 -34 -26 c-172 -129 -326 -378 -385 -622 -4 -14 -8 -81 -10 -150 -2 -106 1
-139 20 -215 94 -363 420 -662 776 -712 62 -9 205 -9 263 0 81 13 212 63 297
113 277 165 454 467 463 790 l2 83 25 -6 c41 -11 201 -7 273 7 38 7 69 11 71
9 2 -2 6 -31 9 -64 13 -134 48 -246 130 -415 126 -257 260 -389 492 -481 322
-128 681 -68 924 156 175 161 284 440 283 725 0 130 -17 221 -62 338 -26 67
-101 206 -119 222 -3 3 -18 21 -33 41 -61 82 -165 172 -270 232 l-48 28 60
120 c33 66 78 158 100 204 22 47 58 123 79 169 l40 84 46 -44 c54 -52 97 -59
134 -20 30 32 66 143 80 248 25 186 76 325 177 479 67 103 175 209 253 248 56
29 208 70 312 86 51 8 136 41 180 70 52 34 74 70 74 123 0 40 -5 48 -43 83
-178 157 -722 -19 -1039 -337 -87 -87 -165 -197 -193 -273 -11 -29 -27 -51
-43 -59 -32 -16 -139 -18 -267 -7 -52 5 -210 7 -350 6 -482 -6 -945 -8 -951
-5 -3 2 -2 29 2 61 5 32 11 87 14 123 3 36 8 85 10 110 7 79 14 163 20 255 4
50 8 108 10 130 2 22 7 72 10 110 3 39 8 84 10 100 10 78 15 126 20 190 4 39
8 77 10 85 2 8 7 51 11 95 3 44 8 91 10 105 10 62 12 330 3 374 -28 149 -110
234 -254 261 -71 14 -301 14 -366 1z m120 -100 c12 -15 12 -19 0 -27 -8 -5
-20 -9 -26 -9 -7 0 -13 -6 -13 -14 0 -12 7 -13 32 -5 30 8 47 0 48 -23 0 -9
-43 -24 -75 -27 -8 0 -15 -7 -15 -15 0 -14 37 -10 82 9 11 4 20 0 28 -14 12
-23 12 -23 -32 -25 -53 -2 -47 -26 6 -26 39 0 48 -4 55 -22 7 -20 5 -24 -18
-28 -35 -7 -28 -26 9 -22 20 2 30 -1 30 -10 0 -7 3 -23 6 -35 5 -18 1 -22 -20
-25 -35 -4 -29 -24 7 -20 15 1 27 -2 27 -7 0 -5 3 -16 6 -25 4 -11 -2 -19 -21
-26 -30 -12 -26 -24 8 -25 18 0 22 -7 24 -37 l3 -37 -36 5 c-48 6 -41 -19 7
-26 26 -4 34 -10 34 -25 0 -17 -6 -19 -33 -17 -42 4 -42 -15 1 -26 37 -10 46
-44 12 -50 -33 -6 -42 -22 -13 -22 25 0 44 -23 32 -41 -3 -5 -14 -9 -24 -9
-10 0 -22 -4 -25 -10 -4 -6 5 -10 19 -10 23 0 26 -4 26 -35 0 -31 -3 -35 -26
-35 -14 0 -23 -4 -19 -10 3 -5 15 -10 26 -10 16 0 19 -5 16 -27 -4 -25 -8 -28
-36 -25 -39 3 -40 -13 -1 -27 17 -5 30 -17 30 -25 0 -9 -6 -13 -14 -10 -8 3
-17 1 -20 -5 -4 -5 3 -12 14 -16 29 -9 25 -35 -6 -35 -16 0 -24 -5 -22 -12 3
-7 13 -13 24 -13 13 0 19 -7 20 -22 1 -26 -3 -27 -42 -13 -15 6 -29 8 -32 6
-10 -11 21 -36 44 -36 13 0 24 -4 24 -10 0 -5 -11 -10 -25 -10 -24 0 -37 -19
-15 -21 6 -1 15 -3 20 -4 6 -1 14 -3 19 -4 13 -2 0 -52 -13 -50 -24 3 -37 -1
-31 -11 3 -5 15 -10 26 -10 12 0 19 -7 19 -20 0 -12 -6 -20 -12 -19 -24 3 -38
-1 -38 -11 0 -5 11 -10 25 -10 18 0 25 -5 25 -20 0 -15 -7 -20 -25 -20 -14 0
-25 -4 -25 -10 0 -5 11 -10 25 -10 31 0 33 -15 3 -25 l-23 -7 25 -7 c32 -9 37
-57 6 -66 -21 -6 -21 -6 2 -15 17 -7 22 -18 23 -47 0 -21 2 -46 4 -55 10 -52
-18 1 -87 166 -117 277 -178 458 -253 751 -40 157 -88 373 -101 452 -12 75 91
163 215 182 60 10 63 9 80 -13z m211 6 c0 -4 -18 -19 -39 -34 l-39 -28 -15 32
c-9 18 -14 35 -12 38 4 7 105 -1 105 -8z m80 -21 c0 -4 -29 -28 -65 -54 -59
-42 -65 -45 -74 -28 -8 15 -1 24 47 58 50 35 92 46 92 24z m64 -40 c4 -5 -14
-21 -39 -36 -25 -14 -61 -42 -80 -61 -39 -39 -51 -42 -60 -14 -8 26 -4 32 58
73 30 20 59 43 66 51 13 16 42 9 55 -13z m6 -62 c-14 -11 -55 -49 -92 -86 -63
-63 -68 -65 -68 -41 0 32 69 102 133 135 48 25 64 20 27 -8z m-768 3 c8 -8 0
-17 -26 -32 -43 -26 -38 -47 5 -24 36 18 36 18 41 -20 3 -26 -1 -31 -29 -38
-45 -12 -42 -30 5 -26 34 3 37 1 40 -25 2 -15 0 -26 -5 -25 -19 5 -73 -15 -73
-27 0 -11 8 -11 44 0 43 13 44 13 49 -12 4 -21 -2 -29 -32 -46 -26 -16 -31
-23 -19 -25 9 -2 26 2 37 7 26 15 26 15 29 -14 1 -14 -4 -27 -11 -29 -40 -12
-48 -17 -42 -25 3 -6 17 -6 34 -1 41 12 51 -15 10 -29 -38 -13 -38 -32 0 -25
35 7 50 -11 16 -20 -33 -9 -32 -28 2 -24 33 4 42 -17 13 -32 -25 -13 -18 -30
10 -23 27 7 27 -23 0 -32 -11 -4 -18 -11 -14 -16 3 -6 13 -8 22 -4 8 3 19 0
24 -7 12 -20 10 -26 -14 -30 -13 -2 -21 -7 -18 -13 3 -5 15 -9 26 -7 14 1 23
-4 27 -17 4 -15 -2 -22 -24 -30 -16 -5 -29 -15 -29 -20 0 -14 16 -14 41 -1 16
9 21 7 28 -12 7 -18 5 -25 -10 -32 -26 -12 -24 -28 2 -24 15 2 24 -4 30 -19 6
-17 5 -23 -5 -23 -7 0 -20 -8 -27 -17 -13 -15 -11 -16 18 -10 27 5 32 3 37
-19 5 -19 1 -30 -16 -44 -13 -10 -20 -22 -16 -26 4 -4 14 -1 22 5 19 16 32 8
39 -25 3 -16 0 -27 -9 -31 -16 -6 -19 -33 -5 -33 6 0 13 5 17 11 4 8 10 6 17
-6 7 -14 4 -22 -14 -36 -27 -20 -20 -36 9 -20 16 8 21 7 26 -5 10 -25 7 -32
-14 -39 -32 -10 -24 -27 10 -20 24 5 30 3 30 -11 0 -10 -7 -26 -17 -36 -13
-15 -14 -18 -2 -18 8 0 20 5 26 11 7 7 12 3 17 -17 5 -20 3 -30 -9 -36 -20
-12 -10 -28 14 -21 22 6 36 -23 15 -31 -21 -8 -17 -28 4 -22 27 9 48 -39 27
-60 -21 -22 -19 -27 9 -20 19 5 25 1 29 -16 4 -12 1 -28 -4 -35 -13 -14 -58
43 -175 222 -285 437 -529 878 -538 972 -10 103 32 195 106 232 35 18 55 22
111 18 38 -2 73 -9 79 -15z m812 -34 c10 -41 6 -53 -21 -66 -16 -7 -57 -39
-92 -72 -36 -33 -66 -59 -67 -57 -2 1 -5 15 -8 29 -4 24 7 38 80 108 47 44 89
80 93 80 5 0 11 -10 15 -22z m11 -113 c0 -17 -5 -25 -16 -25 -16 0 -139 -95
-147 -112 -6 -13 -22 -9 -22 5 0 14 106 120 149 150 29 19 34 16 36 -18z m-4
-58 c0 -5 -38 -45 -85 -91 -82 -80 -84 -82 -88 -55 -4 23 6 35 76 93 75 60 98
73 97 53z m-1232 -31 c8 -9 2 -17 -19 -30 -17 -9 -30 -21 -30 -27 0 -12 6 -12
40 6 27 14 29 14 35 -6 5 -15 1 -25 -14 -36 -12 -8 -19 -19 -15 -25 4 -6 10
-6 17 1 16 16 34 13 42 -6 4 -12 -1 -24 -14 -35 -32 -25 -26 -41 8 -23 28 14
30 14 37 -7 4 -15 0 -26 -15 -37 -26 -20 -17 -35 12 -19 16 8 23 7 34 -8 11
-15 10 -21 -7 -39 -19 -21 -27 -45 -14 -45 4 0 15 10 25 21 16 19 19 20 25 5
3 -9 0 -24 -7 -33 -12 -15 -12 -16 7 -11 16 4 25 -2 37 -22 15 -24 15 -29 1
-49 -19 -26 -11 -40 11 -21 13 11 18 10 30 -6 12 -16 12 -20 0 -30 -21 -16
-18 -27 5 -21 26 7 34 -7 14 -27 -22 -22 -7 -42 16 -21 15 14 18 14 23 1 3 -8
-3 -22 -13 -31 -11 -10 -17 -22 -14 -27 3 -5 14 -2 23 6 10 9 21 16 24 16 16
0 5 -23 -20 -45 -31 -27 -12 -35 23 -10 34 23 49 -11 19 -41 -24 -24 -17 -38
10 -20 30 20 31 20 39 0 4 -11 -1 -22 -15 -32 -14 -10 -18 -17 -10 -25 7 -7
16 -6 29 6 16 15 19 15 30 -4 7 -10 10 -30 6 -44 -4 -15 -2 -25 5 -25 6 0 11
5 11 12 0 9 3 9 12 0 10 -10 10 -17 0 -33 -16 -25 -8 -37 12 -20 12 10 17 8
25 -8 6 -11 11 -29 11 -41 0 -13 4 -19 11 -14 17 10 29 -17 18 -38 -13 -24 0
-47 13 -24 9 16 11 16 23 -1 12 -15 11 -21 -1 -40 -21 -33 -18 -49 6 -28 16
15 22 15 35 5 19 -16 19 -25 -1 -44 -8 -9 -12 -21 -8 -27 5 -8 11 -6 21 7 14
18 15 18 34 -4 14 -18 16 -28 9 -42 -11 -20 4 -38 15 -20 11 17 36 -10 33 -34
-2 -13 3 -21 12 -21 8 0 21 -8 28 -18 11 -14 11 -21 1 -33 -15 -18 -4 -31 14
-15 19 15 41 -11 34 -39 -4 -15 0 -20 13 -20 10 0 33 -19 52 -42 40 -50 32
-47 -97 51 -89 68 -423 390 -580 561 -190 206 -415 483 -435 535 -41 107 49
236 185 265 49 10 63 9 74 -4z m1222 -84 c-5 -2 -40 -28 -77 -57 -115 -91
-100 -50 26 71 l55 53 3 -31 c2 -18 -1 -34 -7 -36z m6 -48 c0 -8 -14 -22 -31
-31 -17 -8 -52 -36 -78 -61 -36 -34 -48 -42 -48 -28 0 20 5 25 83 89 64 51 74
55 74 31z m-7 -64 c0 -11 -6 -20 -14 -20 -8 0 -40 -22 -72 -49 -66 -57 -85
-59 -33 -5 30 32 106 94 116 94 1 0 3 -9 3 -20z m-4 -72 c-3 -13 -5 -26 -5
-30 -1 -5 -7 -8 -14 -8 -7 0 -37 -18 -67 -40 -70 -53 -91 -39 -30 20 80 78
124 100 116 58z m-1579 -51 c-43 -28 -52 -36 -46 -42 7 -6 60 14 69 27 3 4 11
-1 18 -12 10 -16 8 -22 -14 -39 -14 -11 -23 -25 -19 -31 4 -7 16 -3 32 10 36
28 53 10 24 -26 -27 -34 -20 -42 15 -19 26 17 28 17 41 -1 11 -15 11 -19 -2
-27 -27 -14 -17 -29 15 -22 25 5 30 3 30 -12 0 -11 -5 -24 -11 -30 -6 -6 -8
-16 -4 -23 5 -8 12 -5 22 10 14 20 16 20 28 3 11 -15 11 -21 -1 -34 -19 -21
-5 -33 16 -14 14 13 17 12 28 -5 7 -12 8 -21 2 -25 -19 -12 -10 -25 13 -20 29
8 64 -34 45 -53 -18 -18 -1 -27 18 -11 16 13 17 11 12 -14 -4 -22 -2 -27 10
-22 22 8 61 -32 54 -57 -4 -17 -2 -19 18 -13 20 6 22 5 18 -19 -4 -21 -2 -26
12 -24 9 2 24 -3 33 -10 15 -13 15 -16 0 -38 -18 -28 1 -35 21 -8 10 14 14 13
30 -5 17 -19 17 -21 2 -27 -9 -3 -16 -12 -16 -20 0 -17 5 -17 29 -2 15 9 23 9
35 -1 13 -11 12 -15 -7 -34 -13 -13 -17 -22 -9 -25 7 -2 19 4 28 12 23 23 47
-3 38 -41 -5 -23 -4 -26 7 -15 22 20 41 15 34 -10 -6 -16 -4 -20 8 -15 24 9
59 -21 51 -45 -4 -15 -2 -19 7 -15 8 2 22 -2 31 -11 17 -14 17 -16 0 -29 -15
-13 -14 -14 16 -10 37 4 50 -7 31 -29 -15 -19 -5 -29 17 -16 26 15 49 -11 34
-38 -8 -15 -8 -20 3 -20 7 0 18 5 23 10 8 8 15 6 24 -5 8 -10 9 -15 1 -15 -6
0 -11 -7 -11 -15 0 -17 16 -20 25 -5 6 10 37 -11 110 -75 24 -22 15 -19 -49
15 -168 89 -528 329 -726 484 -74 58 -191 138 -260 180 -155 92 -228 145 -236
171 -32 96 38 186 191 245 58 22 67 24 42 7z m1568 -39 c-3 -19 -18 -43 -33
-56 -15 -13 -45 -39 -66 -58 -22 -19 -41 -34 -44 -34 -7 0 5 81 14 89 34 30
117 91 125 91 5 0 7 -15 4 -32z m-11 -110 c-3 -26 -12 -47 -22 -52 -9 -5 -38
-29 -63 -53 -25 -24 -48 -43 -51 -43 -3 0 -4 15 -2 33 3 24 19 47 70 95 36 34
68 62 69 62 2 0 2 -19 -1 -42z m-12 -101 c-4 -13 -35 -47 -69 -76 -51 -42 -63
-48 -63 -32 0 18 112 131 130 131 4 0 5 -11 2 -23z m-28 -122 c-9 -5 -36 -25
-60 -42 l-44 -33 0 31 c0 16 4 28 9 25 5 -3 31 14 58 38 l48 44 3 -26 c3 -18
-2 -30 -14 -37z m-1815 -23 c-43 -38 -22 -49 21 -12 23 19 38 26 44 20 7 -7 3
-16 -12 -26 -12 -8 -22 -22 -22 -30 0 -19 7 -18 32 6 22 21 48 27 48 11 0 -5
-7 -14 -15 -21 -8 -7 -15 -16 -15 -21 0 -17 22 -9 40 14 10 12 22 19 26 15 4
-5 0 -16 -9 -26 -18 -19 -23 -42 -9 -42 4 0 13 9 20 20 13 21 46 27 56 11 4
-5 -6 -18 -20 -29 -17 -12 -24 -24 -19 -31 5 -9 15 -5 35 14 36 35 59 29 31
-7 -24 -30 -26 -38 -10 -38 6 0 20 12 31 26 26 33 47 17 24 -18 -23 -35 -7
-44 19 -12 31 40 49 22 23 -22 -11 -19 -17 -38 -13 -42 6 -6 25 13 44 47 5 8
16 11 25 8 15 -6 14 -11 -8 -40 -14 -19 -26 -42 -26 -53 1 -20 0 -20 52 49 11
15 16 16 32 4 17 -13 17 -15 2 -45 -13 -24 -13 -32 -4 -32 7 0 19 9 26 20 7
11 17 20 22 20 6 0 3 -11 -6 -25 -21 -32 -11 -44 16 -20 26 24 48 8 31 -23 -7
-13 -7 -23 -2 -27 6 -3 15 3 21 14 6 11 17 18 24 15 12 -5 12 -10 -2 -34 -22
-38 -8 -50 19 -16 26 34 44 24 24 -14 -19 -37 -3 -48 20 -14 13 20 19 23 30
14 11 -9 12 -17 4 -31 -7 -15 -6 -19 5 -19 8 0 16 5 18 11 3 9 10 9 26 0 18
-10 20 -16 12 -31 -5 -10 -10 -27 -10 -37 1 -15 5 -13 23 9 18 21 26 25 40 17
14 -9 16 -14 6 -25 -15 -18 -3 -32 13 -16 20 20 31 14 24 -13 -7 -28 -4 -30
24 -13 26 16 50 -3 32 -25 -16 -19 -4 -28 19 -14 15 9 21 9 27 1 4 -7 16 -13
27 -15 11 -2 24 -14 30 -26 6 -15 15 -21 27 -17 9 2 20 -1 25 -8 4 -7 25 -22
46 -32 49 -25 41 -31 -25 -16 -29 6 -62 13 -73 16 -429 85 -600 131 -930 252
-180 66 -190 75 -202 171 -10 88 40 181 134 248 57 41 74 43 32 5z m1824 -35
c-4 -21 -29 -39 -105 -75 -22 -10 -4 27 25 51 71 61 88 66 80 24z m-7 -73 c-3
-9 -6 -24 -6 -33 0 -21 -97 -85 -102 -69 -8 23 5 70 21 75 9 4 27 15 40 25 30
23 55 24 47 2z m-6 -93 c0 -5 -23 -28 -51 -52 -47 -39 -51 -40 -47 -19 2 15
19 35 43 52 43 29 55 33 55 19z m2660 -31 c0 -9 9 -33 20 -55 11 -21 18 -40
16 -42 -2 -3 -29 -10 -60 -17 l-55 -13 -28 31 c-16 17 -39 48 -52 69 -21 34
-21 37 -4 37 10 0 27 3 39 6 17 4 28 -6 60 -55 21 -34 45 -61 52 -61 18 0 16
5 -27 68 l-40 57 32 5 c33 6 47 -3 47 -30z m73 31 c4 -1 7 -7 7 -15 0 -7 11
-29 24 -48 l24 -36 -25 -11 c-35 -16 -37 -15 -61 33 -30 58 -29 87 1 82 12 -3
25 -5 30 -5z m89 -29 c13 -11 15 -19 7 -33 -15 -28 -26 -23 -48 20 l-20 39 22
-5 c12 -3 30 -13 39 -21z m-292 -107 c20 -12 9 -33 -20 -37 -32 -5 -53 13 -99
80 -26 37 -27 36 14 49 29 9 32 7 62 -38 18 -26 37 -50 43 -54z m-2540 72 c0
-7 -20 -27 -45 -45 -57 -40 -59 -25 -3 22 47 40 48 41 48 23z m2417 -66 l42
-58 -32 -10 c-28 -8 -34 -5 -58 22 -14 16 -32 41 -39 54 -11 21 -10 26 6 38
29 21 38 16 81 -46z m-2419 2 c-3 -16 -18 -31 -70 -72 -16 -12 -18 -11 -18 7
0 12 17 32 42 51 49 36 50 36 46 14z m2335 -38 l37 -55 -25 -6 c-15 -4 -29 -1
-37 8 -7 8 -26 29 -43 47 -29 32 -29 33 -11 47 31 22 39 18 79 -41z m-75 -34
l42 -49 -26 -17 c-30 -19 -41 -13 -86 49 -26 36 -27 40 -10 52 27 21 36 17 80
-35z m-2295 -36 c-15 -13 -31 -25 -35 -25 -17 0 -6 22 25 49 23 22 33 26 35
15 2 -7 -9 -25 -25 -39z m2233 -29 c23 -29 30 -46 18 -46 -10 0 -68 43 -93 69
-23 24 -23 25 -5 38 17 12 21 11 37 -9 10 -13 30 -36 43 -52z m-21 -52 c17
-10 17 -11 -5 -32 -13 -12 -31 -22 -41 -22 -17 0 -119 76 -119 88 0 4 15 17
33 28 l32 21 41 -36 c22 -20 49 -41 59 -47z m-4154 38 c-13 -24 -14 -62 -3
-62 5 0 14 18 21 41 7 23 17 38 24 36 7 -3 11 -10 9 -18 -13 -52 -13 -69 -4
-69 6 0 15 14 20 32 11 44 32 49 29 6 -2 -40 15 -50 21 -11 7 58 23 40 31 -39
1 -5 6 -8 11 -8 6 0 10 14 10 30 0 21 5 30 16 30 9 0 14 -8 13 -17 -3 -39 2
-73 11 -73 6 0 10 16 10 35 0 24 5 35 15 35 9 0 15 -9 15 -24 0 -32 10 -56 22
-56 6 0 8 12 5 30 -6 25 -3 30 13 30 11 0 20 -6 21 -12 3 -43 7 -60 18 -71 11
-10 12 -5 9 26 -3 30 -1 37 11 35 8 -2 20 -19 25 -38 11 -43 12 -44 25 -36 6
4 6 18 1 36 -10 34 -10 34 24 18 18 -7 28 -22 32 -45 8 -40 31 -39 26 1 -3 20
0 27 9 24 7 -2 15 -20 17 -38 4 -42 20 -73 32 -65 6 3 5 16 0 31 -17 45 -13
57 17 49 34 -8 31 -5 37 -38 8 -45 17 -67 27 -67 6 0 8 17 4 45 l-7 44 32 -9
c40 -11 40 -11 46 -46 6 -34 12 -44 25 -44 6 0 7 14 3 36 -6 35 -6 36 17 29
29 -9 24 -3 42 -47 9 -21 21 -38 28 -38 7 0 8 7 4 18 -18 44 -19 56 -1 49 10
-4 22 -7 27 -7 5 0 9 -12 9 -27 0 -34 15 -60 24 -45 4 6 4 22 2 37 -4 20 -1
25 15 25 10 0 19 -3 20 -7 1 -5 2 -21 4 -38 4 -44 4 -45 15 -45 6 0 10 17 10
39 0 35 2 38 24 34 19 -4 26 -12 28 -36 2 -17 9 -32 16 -35 10 -3 12 4 9 27
-5 32 0 36 40 25 15 -4 23 -15 25 -37 2 -17 9 -32 15 -35 9 -2 11 5 7 27 -6
28 -4 31 20 31 22 0 26 -4 26 -28 0 -28 15 -52 33 -52 5 0 6 8 2 18 -13 33
-14 52 -2 52 21 0 32 -14 34 -46 l3 -31 -123 -2 c-67 -1 -167 -4 -222 -6 -55
-2 -260 -6 -455 -10 -195 -4 -390 -8 -432 -9 l-78 -3 -5 31 c-11 56 -12 119
-3 166 5 25 10 54 12 66 5 27 40 99 68 140 24 35 37 39 19 6z m1969 20 c0 -11
-60 -55 -67 -48 -6 5 47 55 60 56 4 0 7 -4 7 -8z m-253 -82 c12 -28 21 -50 19
-50 -10 0 -66 82 -61 90 11 18 20 10 42 -40z m2315 -11 c26 -20 53 -39 60 -42
10 -3 8 -10 -7 -25 -20 -21 -21 -21 -60 -3 -22 10 -55 33 -73 50 l-32 33 22
18 c26 20 25 21 90 -31z m-2070 19 c-3 -13 -15 -30 -26 -40 -20 -16 -21 -15
-26 5 -4 15 1 28 15 39 28 24 44 23 37 -4z m1981 -63 c22 -19 56 -40 74 -47
37 -13 38 -17 20 -42 -12 -17 -16 -15 -63 20 -63 48 -96 83 -89 95 9 14 14 12
58 -26z m-1989 -17 c-10 -35 -25 -51 -37 -39 -7 7 -4 19 7 35 21 32 40 34 30
4z m1937 -14 c13 -14 46 -42 72 -61 30 -22 45 -39 39 -45 -16 -16 -55 1 -115
48 -50 40 -55 47 -44 65 15 25 19 24 48 -7z m-29 -68 c22 -19 57 -42 77 -52
20 -9 37 -18 39 -19 10 -8 -24 -55 -40 -55 -20 0 -133 50 -161 71 -16 13 -16
16 8 52 14 20 28 37 31 37 3 0 24 -15 46 -34z m-1916 -13 c-3 -21 -6 -45 -7
-53 -1 -8 -5 3 -9 25 -5 24 -4 45 2 53 17 20 20 14 14 -25z m1881 -95 c40 -19
82 -39 95 -43 50 -17 -53 -16 -108 1 -71 22 -85 33 -78 62 4 13 9 21 13 20 3
-2 38 -20 78 -40z m-2541 -25 c4 -22 -17 -36 -39 -27 -8 3 -12 15 -11 27 1 12
3 25 3 29 2 16 44 -10 47 -29z m129 -8 l40 -13 -72 -1 c-68 -1 -73 1 -73 20 0
18 4 20 32 13 18 -3 51 -12 73 -19z m2388 -32 c21 -7 53 -15 70 -17 18 -2 35
-4 40 -5 17 -2 -19 -41 -39 -41 -29 0 -116 27 -138 43 -25 18 -15 53 12 42 9
-4 34 -14 55 -22z m7 -77 c14 -2 37 -5 51 -5 26 -1 26 -2 16 -41 -11 -39 -12
-40 -47 -34 -43 8 -140 52 -140 64 0 5 4 20 10 34 l9 26 38 -20 c21 -11 49
-21 63 -24z m-520 18 c63 -5 159 -8 213 -7 l99 2 -8 -42 c-4 -23 -8 -67 -8
-97 l-1 -55 -64 -32 c-42 -22 -77 -33 -105 -33 -37 0 -49 6 -97 51 -69 66
-140 100 -211 100 -76 1 -120 -13 -229 -75 -157 -89 -180 -90 -310 -16 -47 26
-101 52 -120 57 -73 20 -151 -7 -235 -83 -132 -120 -148 -123 -259 -45 -159
110 -201 111 -395 6 -113 -60 -156 -58 -271 16 -134 88 -172 86 -322 -15 -93
-62 -136 -64 -237 -9 -156 86 -194 103 -229 103 -60 0 -129 -31 -198 -90 -36
-30 -75 -63 -87 -73 -60 -49 -143 -27 -229 61 l-48 49 -6 86 -6 87 59 1 c163
1 1205 27 1394 34 106 4 729 13 1329 20 216 2 395 6 397 8 5 4 15 4 184 -9z
m513 -115 c39 -9 47 -15 47 -35 0 -35 -14 -37 -95 -13 l-75 22 0 38 0 37 38
-18 c21 -11 60 -24 85 -31z m18 -89 c15 0 19 -6 17 -29 -1 -16 -6 -27 -10 -25
-4 3 -16 7 -26 9 -45 8 -108 28 -119 36 -8 8 -11 32 -4 45 1 1 28 -7 62 -17
33 -10 69 -19 80 -19z m-657 -14 c18 -7 60 -38 94 -69 35 -30 75 -60 91 -65
46 -16 123 -7 184 21 31 14 59 23 61 19 2 -4 7 -23 11 -43 7 -38 8 -35 -223
-512 -83 -171 -87 -178 -112 -173 -236 56 -423 42 -617 -45 -190 -85 -323
-228 -450 -484 -63 -128 -94 -181 -108 -185 -5 -2 -30 -10 -55 -18 -57 -18
-275 -25 -323 -10 -31 9 -37 17 -47 57 -42 169 -184 378 -335 492 -66 49 -183
114 -265 146 -202 78 -338 87 -540 34 -63 -16 -116 -28 -117 -27 -1 1 29 29
67 61 39 33 70 63 70 67 0 18 -23 5 -89 -52 -39 -33 -73 -60 -76 -60 -3 0 -15
8 -26 19 -19 18 -19 18 28 56 26 21 50 40 52 41 1 2 0 7 -3 13 -4 7 -27 -5
-58 -29 -53 -42 -65 -42 -89 1 -8 16 -2 21 41 40 27 12 50 25 50 30 0 14 -17
11 -71 -12 -27 -12 -51 -20 -52 -18 -1 2 -11 14 -21 26 l-19 23 49 21 c59 26
58 25 49 39 -4 7 -11 7 -18 2 -7 -5 -30 -16 -52 -24 l-41 -16 -22 34 c-13 19
-20 39 -17 44 3 5 27 16 52 23 56 16 72 40 21 30 -18 -3 -45 -12 -60 -19 -15
-8 -29 -14 -32 -14 -9 0 -47 70 -42 78 3 5 28 12 55 16 28 4 53 11 56 16 10
15 -11 16 -87 2 l-47 -9 -21 43 c-11 24 -20 45 -20 47 0 2 16 4 37 5 40 3 56
10 49 21 -3 4 -27 6 -54 3 -43 -3 -50 -1 -55 17 -3 14 0 21 9 21 21 0 17 18
-7 25 -18 6 -45 52 -36 62 2 2 28 -9 56 -23 102 -54 184 -34 296 72 112 104
164 112 281 40 136 -84 221 -108 301 -87 22 6 71 34 109 61 105 77 119 77 227
6 140 -92 218 -92 377 -1 41 24 88 46 104 49 41 7 95 -14 186 -74 102 -67 147
-74 222 -36 29 14 78 49 108 77 106 97 147 104 259 43 36 -20 80 -44 96 -53
19 -10 54 -16 97 -16 63 0 75 4 190 64 167 87 204 96 272 67z m597 -46 c62
-19 69 -23 67 -45 -3 -28 -27 -32 -90 -15 -37 11 -58 34 -58 64 0 20 -1 20 81
-4z m56 -114 c-6 -16 -98 -11 -108 6 -20 30 -9 35 51 20 35 -9 59 -20 57 -26z
m-24 -71 c-4 -46 -19 -51 -42 -14 -28 45 -27 51 12 46 28 -3 32 -7 30 -32z
m-781 -674 c8 -58 -4 -383 -18 -466 -8 -44 -14 -43 -14 2 0 58 -34 244 -65
358 -14 54 -24 103 -21 111 3 7 22 14 43 16 21 2 45 4 54 5 11 1 18 -8 21 -26z
m180 1 c22 -22 -151 -602 -180 -602 -7 0 -11 3 -9 8 3 4 8 52 12 107 3 55 8
118 10 140 3 33 15 323 15 361 0 12 139 -1 152 -14z m-2340 0 c19 -5 20 4 -18
-192 -13 -69 -26 -143 -30 -165 -3 -22 -7 -51 -10 -65 -2 -14 -7 -60 -10 -103
-10 -118 -19 -93 -29 84 -3 63 -8 130 -10 149 -2 19 -7 63 -10 97 -3 34 -8 70
-10 81 -2 10 -6 42 -10 71 l-7 52 64 -2 c35 -1 71 -4 80 -7z m2022 -44 c43
-151 71 -287 82 -403 3 -33 7 -71 9 -84 6 -32 -8 -15 -28 34 -17 44 -99 220
-171 364 -25 52 -44 97 -41 100 7 7 103 38 122 40 6 1 18 -23 27 -51z m-2176
-45 c18 -141 21 -174 27 -253 17 -273 21 -266 -41 -86 -35 100 -79 262 -89
326 -3 19 -8 47 -11 62 -5 23 -2 27 23 31 83 12 79 16 91 -80z m302 42 c3 -35
-55 -219 -103 -325 -14 -30 -39 -85 -55 -122 -32 -70 -43 -84 -37 -45 2 12 6
47 10 78 3 31 7 65 9 75 2 11 7 39 10 64 9 54 55 290 61 306 4 14 103 -15 105
-31z m2358 -9 c18 -9 32 -20 32 -24 -1 -47 -340 -564 -340 -518 0 4 39 116 58
166 3 8 6 17 7 20 0 3 15 49 33 104 18 54 42 145 54 201 l23 102 51 -17 c28
-10 65 -25 82 -34z m-2797 17 c0 -10 2 -25 4 -33 28 -143 52 -234 98 -371 14
-41 24 -75 23 -76 -1 -1 -28 51 -61 115 -61 122 -167 354 -162 357 2 3 78 22
90 24 4 1 7 -7 8 -16z m2298 -343 c16 -36 46 -101 66 -145 l36 -80 -23 -18
c-22 -19 -23 -18 -44 8 -34 43 -189 303 -233 392 -68 137 -68 129 -13 157 l47
25 67 -137 c37 -75 80 -166 97 -202z m-2348 161 c31 -69 75 -160 97 -201 23
-41 48 -93 57 -115 l17 -40 -49 46 c-26 25 -68 63 -93 85 -25 21 -96 89 -157
151 -102 100 -128 133 -105 133 4 0 18 10 32 23 14 12 45 37 70 54 l45 32 15
-21 c8 -12 40 -78 71 -147z m594 143 c30 -15 58 -30 61 -35 8 -14 -327 -501
-353 -513 -7 -3 4 30 24 72 19 42 55 124 80 182 24 58 51 119 58 135 20 45 54
173 47 179 -14 15 33 3 83 -20z m2355 -41 l38 -28 -41 -60 c-34 -50 -96 -129
-142 -181 -55 -62 -208 -214 -216 -214 -5 0 14 33 42 73 94 131 204 302 238
370 19 37 36 67 38 67 3 0 22 -12 43 -27z m-848 -60 c41 -87 134 -252 211
-372 44 -70 57 -98 50 -110 -17 -27 -31 -23 -60 21 -49 72 -192 268 -260 355
-34 46 -63 87 -63 92 0 8 79 80 88 81 1 0 16 -30 34 -67z m-1287 -43 c17 -19
22 -15 -255 -249 -30 -25 -87 -74 -127 -108 -70 -61 -93 -74 -93 -53 0 5 33
54 73 109 96 132 208 295 243 353 l28 47 57 -41 c32 -22 65 -48 74 -58z m2274
-23 l23 -28 -28 -23 c-16 -13 -94 -75 -174 -137 -80 -62 -171 -132 -202 -157
-40 -31 -61 -41 -71 -35 -12 6 4 28 75 103 118 125 217 243 258 307 l33 52 31
-27 c18 -15 42 -40 55 -55z m-3001 -287 c72 -65 100 -95 91 -101 -15 -9 -16
-9 -199 101 -80 48 -172 102 -205 120 -120 66 -130 72 -138 79 -4 5 11 32 35
61 24 29 47 59 53 66 7 10 39 -15 135 -110 69 -68 171 -165 228 -216z m1913
263 c24 -32 46 -60 49 -63 26 -26 270 -370 270 -381 0 -9 -48 15 -85 43 -80
60 -365 324 -365 338 0 8 79 120 84 120 2 0 23 -26 47 -57z m-1097 -46 l41
-48 -24 -18 c-12 -9 -95 -55 -184 -101 -150 -77 -271 -143 -324 -177 -11 -8
-24 -10 -27 -5 -3 5 92 92 211 193 119 101 221 190 227 196 18 20 36 11 80
-40z m2292 -80 c19 -33 34 -61 32 -62 -17 -15 -180 -86 -331 -145 -168 -66
-189 -72 -203 -58 -16 16 -6 24 346 300 l85 67 18 -21 c10 -12 34 -48 53 -81z
m-3458 -23 c132 -75 380 -222 400 -237 8 -6 9 -14 3 -20 -6 -6 -61 16 -148 58
-76 37 -202 95 -279 129 l-142 62 19 37 c11 20 22 37 25 37 3 0 58 -30 122
-66z m2364 -173 c25 -23 61 -53 79 -67 18 -13 28 -24 22 -24 -15 0 -222 72
-319 111 -44 17 -89 35 -102 40 l-22 9 41 77 c23 43 44 82 46 87 3 4 51 -37
107 -91 55 -55 122 -119 148 -142z m-1124 174 c11 -24 9 -26 -76 -66 -166 -79
-207 -97 -272 -124 -78 -33 -145 -62 -182 -81 -16 -8 -28 -10 -28 -5 0 13 131
90 295 173 72 37 155 80 185 97 30 17 58 31 61 31 3 0 11 -11 17 -25z m-1299
-80 c58 -25 181 -82 273 -127 157 -77 166 -82 156 -103 l-10 -22 -111 42
c-116 44 -247 87 -377 125 -41 12 -79 26 -84 30 -10 10 24 100 38 100 4 0 56
-20 115 -45z m1371 -76 c0 -9 -14 -13 -255 -78 -136 -37 -255 -65 -327 -77
-16 -3 -28 -1 -28 4 0 9 35 25 205 97 55 23 125 55 155 70 30 16 89 43 130 61
l75 33 23 -51 c12 -28 22 -54 22 -59z m2224 4 c36 -120 36 -120 -26 -132 -110
-22 -235 -33 -391 -36 -97 -1 -109 1 -119 18 -12 24 -6 30 62 55 132 48 295
115 362 147 40 19 76 35 79 35 3 0 18 -39 33 -87z m-1191 -99 c59 -19 107 -37
107 -40 0 -2 -17 -2 -37 0 -21 3 -76 8 -123 11 -47 4 -87 8 -90 10 -11 7 -146
18 -192 17 l-48 -2 21 53 c12 28 23 57 26 63 3 8 43 -4 116 -33 62 -25 160
-60 220 -79z m-2357 25 c147 -47 283 -96 293 -105 5 -4 -47 2 -99 11 -59 11
-119 15 -276 20 -92 2 -168 6 -169 7 -1 2 4 32 12 66 l15 64 33 -6 c18 -4 104
-29 191 -57z m1349 -20 l7 -36 -109 -27 c-165 -40 -256 -53 -390 -55 -98 -2
-123 1 -123 12 0 9 40 22 126 41 70 15 147 34 173 42 147 45 297 80 303 70 3
-6 9 -27 13 -47z m845 -43 c53 -10 98 -16 188 -22 87 -7 124 -18 65 -20 -35
-1 -160 -14 -193 -19 -14 -3 -52 -7 -85 -11 -33 -3 -62 -8 -65 -9 -3 -2 -41
-6 -86 -10 l-81 -6 4 48 c3 26 10 51 16 55 12 8 192 3 237 -6z m1391 -86 c3
-138 2 -142 -28 -136 -130 22 -523 141 -523 158 0 4 42 8 93 9 50 0 106 2 122
3 17 2 66 6 110 10 44 4 109 13 145 20 36 7 68 10 72 6 4 -3 8 -35 9 -70z
m-2219 29 c5 -59 -4 -63 -140 -55 -118 7 -234 22 -197 25 54 5 109 16 205 41
58 15 110 28 116 29 7 0 14 -17 16 -40z m-1382 17 c91 -3 206 -12 255 -20 50
-7 93 -12 97 -10 4 3 9 0 13 -6 3 -5 -2 -10 -12 -11 -10 0 -29 -2 -43 -4 -14
-1 -68 -6 -120 -9 -281 -19 -316 -22 -384 -35 -25 -5 -47 -6 -50 -4 -5 5 2 79
9 99 2 7 18 10 37 8 18 -1 107 -5 198 -8z m2583 -35 c-6 -22 -39 -32 -348
-105 -104 -25 -204 -50 -221 -54 l-32 -9 -11 55 c-6 30 -9 57 -7 59 4 4 79 15
181 27 28 4 66 9 85 11 65 10 105 14 185 21 44 3 81 7 82 8 1 0 22 2 46 4 41
2 45 1 40 -17z m832 -137 c55 -14 117 -30 138 -35 22 -6 37 -16 37 -25 0 -27
-31 -154 -40 -159 -14 -9 -242 105 -408 203 -79 47 -93 58 -88 76 3 12 6 28 6
37 0 13 23 8 128 -28 70 -23 172 -55 227 -69z m-3045 96 c0 -5 -19 -14 -42
-20 -24 -6 -49 -13 -57 -16 -8 -2 -30 -7 -50 -10 -20 -3 -61 -12 -91 -19 -48
-12 -307 -62 -350 -68 -10 -1 -16 11 -20 39 l-6 42 65 10 c94 16 141 21 271
27 136 6 253 16 259 21 8 8 21 4 21 -6z m716 -4 c47 -9 165 -20 229 -20 l70
-1 -3 -40 c-1 -22 -5 -56 -8 -77 -6 -42 -5 -42 -139 12 -44 18 -152 57 -240
86 l-160 53 116 -5 c63 -2 124 -6 135 -8z m1494 -13 c0 -5 -46 -38 -103 -74
-56 -37 -169 -110 -250 -163 -82 -53 -151 -96 -153 -96 -5 0 -44 88 -44 99 0
9 78 46 325 155 180 80 225 96 225 79z m-1704 -42 c44 -21 118 -60 165 -86
106 -61 203 -109 252 -124 20 -7 37 -19 37 -26 0 -20 -22 -65 -31 -65 -4 0
-126 77 -270 170 -144 94 -255 170 -247 170 8 0 50 -17 94 -39z m-548 -6 c-20
-14 -39 -25 -41 -25 -3 0 -56 -24 -118 -54 -294 -139 -352 -166 -354 -164 -7
7 -45 141 -41 145 2 2 12 5 22 7 11 2 37 7 59 11 22 4 51 9 65 12 67 12 406
86 409 89 2 2 11 4 20 4 9 0 -1 -11 -21 -25z m545 -52 c114 -74 226 -147 334
-216 39 -26 74 -51 77 -55 3 -5 -2 -19 -10 -31 -14 -20 -18 -21 -33 -7 -9 8
-50 37 -91 63 -41 27 -102 71 -135 98 -84 69 -227 177 -242 182 -13 5 -19 33
-8 33 3 0 52 -30 108 -67z m203 18 c190 -66 273 -97 279 -103 4 -3 3 -18 -1
-33 -6 -23 -10 -26 -33 -20 -58 14 -426 205 -395 205 6 0 74 -22 150 -49z
m1299 40 c-6 -5 -39 -21 -75 -36 -36 -15 -85 -36 -110 -48 -136 -61 -173 -77
-175 -75 -1 2 -7 18 -13 35 -11 32 -10 33 26 43 54 15 283 71 312 77 13 2 27
6 29 9 2 2 7 4 10 4 3 0 1 -4 -4 -9z m220 -8 c4 -13 -3 -26 -22 -43 -16 -14
-49 -42 -73 -64 -25 -21 -85 -75 -133 -119 -106 -97 -207 -177 -224 -177 -7 0
-24 22 -37 48 l-24 48 109 69 c60 39 171 111 247 161 75 51 140 92 143 93 4 1
10 -7 14 -16z m590 -98 c55 -32 154 -84 220 -117 66 -33 123 -63 128 -67 7 -7
-39 -121 -48 -121 -8 0 -330 223 -370 256 -99 81 -99 82 -86 110 11 24 13 25
34 11 12 -8 67 -40 122 -72z m-2842 33 c-22 -24 -53 -59 -69 -78 -74 -89 -137
-148 -227 -216 -54 -41 -102 -74 -106 -74 -5 0 -20 15 -34 34 l-26 34 87 53
c95 58 267 178 350 246 68 55 77 55 25 1z m-33 27 c0 -13 -269 -205 -378 -268
l-62 -37 -20 33 c-11 17 -20 35 -20 38 0 7 72 43 280 141 85 41 164 79 175 86
23 13 25 14 25 7z m531 -102 c104 -107 177 -193 254 -296 l58 -78 -29 -27
c-46 -44 -104 -85 -104 -74 0 32 -106 230 -217 405 -70 110 -81 136 -66 150
12 13 19 7 104 -80z m1752 75 c-4 -7 -53 -80 -108 -163 -56 -82 -128 -194
-160 -247 -67 -110 -60 -109 -131 -16 l-45 57 62 45 c35 25 97 77 138 114 148
134 246 221 249 222 2 0 0 -6 -5 -12z m-2203 -60 c-12 -29 -33 -78 -47 -108
-14 -30 -41 -93 -60 -140 -19 -47 -43 -104 -54 -127 -10 -24 -19 -45 -19 -47
0 -2 -9 -25 -20 -50 l-19 -46 -51 36 c-27 20 -50 40 -50 45 0 23 101 176 315
477 27 38 30 17 5 -40z m2156 -161 c-52 -105 -109 -228 -127 -272 -17 -44 -35
-84 -40 -89 -4 -4 -27 7 -51 25 l-44 34 100 160 c166 263 239 367 249 350 6
-11 -22 -76 -87 -208z m-1596 108 c34 -27 68 -54 74 -61 7 -6 58 -42 114 -79
56 -37 102 -72 102 -77 0 -6 -16 -31 -36 -54 l-35 -44 -79 102 c-88 113 -157
195 -210 248 -54 55 -69 78 -29 45 20 -16 65 -52 99 -80z m2123 34 c40 -33
135 -103 212 -154 77 -51 150 -103 163 -115 21 -20 22 -23 6 -48 -8 -15 -27
-40 -40 -57 l-24 -30 -216 217 c-183 184 -215 220 -204 233 7 8 17 15 22 15 5
0 42 -27 81 -61z m-2679 -165 c-85 -325 -101 -384 -106 -389 -5 -6 -85 31 -91
42 -3 5 8 37 23 73 16 36 59 137 96 225 37 88 79 185 93 215 42 92 37 30 -15
-166z m400 73 c82 -133 97 -159 152 -267 67 -135 68 -130 -14 -173 -39 -21
-75 -37 -80 -37 -6 0 -15 22 -21 49 -13 63 -111 354 -150 450 -17 41 -30 75
-29 76 2 1 14 9 28 18 30 21 27 24 114 -116z m-507 51 c-80 -110 -186 -266
-207 -309 -11 -21 -25 -41 -31 -44 -12 -8 -89 62 -89 80 0 5 17 21 38 34 74
48 189 147 262 228 41 46 76 83 78 83 1 0 -21 -33 -51 -72z m2393 55 c0 -10
-9 -47 -20 -83 -18 -58 -43 -161 -56 -230 -3 -14 -7 -32 -9 -40 -2 -8 -7 -31
-10 -50 -3 -19 -13 -69 -22 -110 -9 -41 -16 -78 -15 -83 4 -15 -30 -6 -88 23
-33 17 -60 31 -60 33 0 1 14 36 30 77 55 135 63 151 201 423 29 57 49 73 49
40z m-2184 -8 c4 -9 1 -50 -6 -93 -18 -122 -19 -127 -26 -327 -3 -104 -8 -192
-10 -194 -2 -2 -34 4 -70 14 l-66 18 6 44 c3 24 20 92 37 151 17 59 47 168 65
242 19 74 37 141 39 148 6 17 24 15 31 -3z m2658 -206 l218 -220 -27 -30 c-32
-32 -104 -84 -109 -78 -61 75 -369 519 -364 524 4 4 50 23 58 24 3 1 103 -98
224 -220z m-2593 194 c0 -5 2 -21 4 -38 2 -16 6 -50 9 -75 12 -94 17 -128 37
-244 11 -65 27 -148 35 -184 8 -35 13 -66 11 -68 -4 -5 -83 -8 -138 -5 l-36 1
3 137 c4 195 22 408 40 471 4 13 34 17 35 5z m77 -20 c6 -16 31 -81 56 -146
61 -160 131 -396 120 -407 -8 -8 -127 -42 -129 -37 -6 12 -39 179 -55 282 -27
171 -28 180 -36 250 -3 33 -8 63 -10 67 -4 7 13 16 33 17 6 1 16 -11 21 -26z
m2095 -3 c0 -14 -4 -115 -7 -225 -8 -247 -15 -356 -24 -370 -10 -17 -132 12
-132 31 0 8 9 56 20 107 11 50 22 108 25 127 11 66 46 212 67 287 16 54 26 73
38 71 9 -2 14 -13 13 -28z m51 -12 c3 -18 8 -51 12 -73 3 -22 12 -71 20 -110
53 -247 74 -391 61 -411 -3 -6 -30 -10 -59 -9 -98 4 -91 0 -84 47 3 24 9 129
12 233 3 105 7 219 9 255 2 36 4 73 4 83 2 29 18 19 25 -15z m188 -158 c63
-91 145 -205 181 -255 l67 -90 -67 -32 c-38 -18 -73 -32 -79 -33 -6 0 -17 15
-24 33 -8 17 -40 97 -73 177 -72 176 -147 370 -147 384 0 18 25 -15 142 -184z
m-59 -105 c47 -116 95 -232 106 -259 12 -27 20 -50 18 -52 -7 -7 -118 -27
-123 -22 -2 3 -7 27 -9 54 -8 82 -15 119 -70 382 -24 120 -32 184 -15 132 4
-14 46 -119 93 -235z"/>
</g>
</svg>
