<?xml version="1.0" encoding="utf-8"?>
<!-- Generator: Adobe Illustrator 20.1.0, SVG Export Plug-In . SVG Version: 6.00 Build 0)  -->
<svg version="1.1" id="Слой_1" xmlns="http://www.w3.org/2000/svg" xmlns:xlink="http://www.w3.org/1999/xlink" x="0px" y="0px"
	 viewBox="0 0 693.4 32.5" style="enable-background:new 0 0 693.4 32.5;" xml:space="preserve">
<style type="text/css">
	.st0{fill:#FAFAFA;}
</style>
<g>
	<rect y="27.6" class="st0" width="693.4" height="4.9"/>
	<g>
		<g>
			<path class="st0" d="M659.2,31.5c-0.1,0-0.2-0.7-0.2-1.2c0-3.3,2.6-5.9,5.7-5.9c3.2,0,5.7,2.6,5.7,5.8c0,0.5-0.1,1.2-0.2,1.2h2.7
				c0.1,0,0.1-0.8,0.1-1.2c0-4.8-3.7-8.6-8.3-8.6s-8.3,3.8-8.3,8.5c0,0.5,0,1.2,0.1,1.2h2.7V31.5z"/>
			<path class="st0" d="M635.5,25.9c0-3.6,2.3-6.6,5.4-7.7c-0.1-0.2-0.1-0.4-0.2-0.6c-0.5-2.1-0.3-4.3,0.8-6.2
				c1.4-2.5,4-4.1,6.8-4.1c0.5,0,1.1,0.1,1.6,0.2c0-0.2,0.1-0.4,0.1-0.6c0.5-2.1,1.9-3.9,3.7-5c1.2-0.7,2.6-1.1,3.9-1.1
				c2,0,3.8,0.8,5.3,2.1c1.5-1.8,3.6-2.9,6-2.9c3.5,0,6.5,2.4,7.5,5.6c0.8-0.3,1.7-0.5,2.6-0.5c1.4,0,2.7,0.4,3.9,1.1
				c3,1.8,4.5,5.4,3.8,8.8c2.2,0.4,4.2,1.9,5.4,3.9c1.8,3.2,1.2,7-1,9.5c1,0.8,1.7,2,2.2,2.9h-2.9c-0.4,0-0.8-0.9-1.4-1.3
				c-1.1,0.6-2.4,1.1-3.7,1.1c-1,0-1.9-0.3-2.8-0.7c-0.3,0.3-0.6,0.9-0.9,0.9h-3.3c0,0,0.1-0.8,0.1-1.2c0-7.8-6.2-14.2-13.7-14.2
				c-7.6,0-13.7,6.3-13.7,14.1c0,0.5,0,1.2,0.1,1.2h-13.3C636.4,30.5,635.5,28.1,635.5,25.9z M680.4,21.6c0,0.1,0,0.2-0.1,0.3
				c-0.4,1.4-0.2,3,0.5,4.3c0.4,0.8,1,1.5,1.7,2c1.1-0.6,2.3-0.5,3.6-0.5l0,0c0.9,0,1.8-0.2,2.6,0.1c1.9-1.7,2.5-5,1.2-7.4
				c-0.9-1.5-2.4-2.5-4.1-2.6C684.7,19.8,682.6,21.2,680.4,21.6z M674,14.6v0.2c0.4,1.4,1.2,2.6,2.5,3.3c0.7,0.4,1.4,0.6,2.2,0.7
				c0.7-1.2,1.6-2.1,2.8-2.8c0.8-0.5,1.8-0.8,2.7-1c0.7-2.4-0.2-5.1-2.4-6.4c-0.8-0.5-1.7-0.7-2.6-0.7c-0.8,0-1.5,0.2-2.2,0.5
				C676.8,11,675.7,13.2,674,14.6z M664.7,5.1c1.2,2.2,1.2,4.7,0.4,6.9l0.1,0.2c1,1,2.3,1.6,3.7,1.6c0.8,0,1.5-0.2,2.2-0.5
				c0-1.4,0.4-2.7,1.1-3.9c0.5-0.9,1.1-1.6,1.9-2.3c-0.5-2.4-2.6-4.3-5.2-4.3C667.2,2.8,665.6,3.7,664.7,5.1z M652.5,8.6
				c2.1,1.3,3.3,3.4,3.7,5.7c0.5,0.2,1,0.3,1.6,0.3c0.9,0,1.8-0.3,2.6-0.7c0.7-0.4,1.2-1,1.7-1.6c-0.6-1.2-1-2.5-1-3.9
				c0-1,0.2-2,0.5-2.9c-1-1.1-2.4-1.8-3.9-1.8c-0.9,0-1.8,0.3-2.6,0.7c-1.2,0.7-2.1,1.9-2.5,3.3C652.6,8,652.5,8.3,652.5,8.6z
				 M643.3,17c0.1,0.3,0.2,0.6,0.3,0.9c2.4,0.1,4.5,1.2,6,3c1.4-0.3,2.7-1.3,3.4-2.6c0.4-0.7,0.6-1.5,0.7-2.3
				c-1.1-0.7-2.1-1.7-2.7-2.9c-0.5-0.9-0.8-1.8-1-2.8c-0.5-0.2-1-0.3-1.6-0.3c-1.9,0-3.6,1.1-4.6,2.7
				C643.1,14.1,642.9,15.6,643.3,17z M638.1,26c0,1.9,0.9,3.5,2.3,4.5c1.2-0.7,2.5-1,3.8-1c1,0,1.9,0.2,2.8,0.6c1.1-1,1.7-2.4,1.7-4
				c0-0.8-0.2-1.6-0.5-2.3c-1.3,0-2.6-0.4-3.8-1.1c-0.9-0.5-1.6-1.2-2.2-1.9C639.9,21.3,638.1,23.4,638.1,26z"/>
		</g>
		<g>
			<path class="st0" d="M601.3,31.5c-0.1,0-0.2-0.7-0.2-1.2c0-3.3,2.6-5.9,5.7-5.9c3.2,0,5.7,2.6,5.7,5.8c0,0.5-0.1,1.2-0.2,1.2h2.7
				c0.1,0,0.1-0.8,0.1-1.2c0-4.8-3.7-8.6-8.3-8.6s-8.3,3.8-8.3,8.5c0,0.5,0,1.2,0.1,1.2h2.7V31.5z"/>
			<path class="st0" d="M577.6,25.9c0-3.6,2.3-6.6,5.4-7.7c-0.1-0.2-0.1-0.4-0.2-0.6c-0.5-2.1-0.3-4.3,0.8-6.2
				c1.4-2.5,4-4.1,6.8-4.1c0.5,0,1.1,0.1,1.6,0.2c0-0.2,0.1-0.4,0.1-0.6c0.5-2.1,1.9-3.9,3.7-5c1.2-0.7,2.6-1.1,3.9-1.1
				c2,0,3.8,0.8,5.3,2.1c1.5-1.8,3.6-2.9,6-2.9c3.5,0,6.5,2.4,7.5,5.6c0.8-0.3,1.7-0.5,2.6-0.5c1.4,0,2.7,0.4,3.9,1.1
				c3,1.8,4.5,5.4,3.8,8.8c2.2,0.4,4.2,1.9,5.4,3.9c1.8,3.2,1.2,7-1,9.5c1,0.8,1.7,2,2.2,2.9h-2.9c-0.4,0-0.8-0.9-1.4-1.3
				c-1.1,0.6-2.4,1.1-3.7,1.1c-1,0-1.9-0.3-2.8-0.7c-0.3,0.3-0.6,0.9-0.9,0.9h-3.3c0,0,0.1-0.8,0.1-1.2c0-7.8-6.2-14.2-13.7-14.2
				c-7.6,0-13.7,6.3-13.7,14.1c0,0.5,0,1.2,0.1,1.2h-13.3C578.5,30.5,577.6,28.1,577.6,25.9z M622.5,21.6c0,0.1,0,0.2-0.1,0.3
				c-0.4,1.4-0.2,3,0.5,4.3c0.4,0.8,1,1.5,1.7,2c1.1-0.6,2.3-0.5,3.6-0.5l0,0c0.9,0,1.8-0.2,2.6,0.1c1.9-1.7,2.5-5,1.2-7.4
				c-0.9-1.5-2.4-2.5-4.1-2.6C626.8,19.8,624.7,21.2,622.5,21.6z M616.1,14.6v0.2c0.4,1.4,1.2,2.6,2.5,3.3c0.7,0.4,1.4,0.6,2.2,0.7
				c0.7-1.2,1.6-2.1,2.8-2.8c0.8-0.5,1.8-0.8,2.7-1c0.7-2.4-0.2-5.1-2.4-6.4c-0.8-0.5-1.7-0.7-2.6-0.7c-0.8,0-1.5,0.2-2.2,0.5
				C618.9,11,617.8,13.2,616.1,14.6z M606.8,5.1c1.2,2.2,1.2,4.7,0.4,6.9l0.1,0.2c1,1,2.3,1.6,3.7,1.6c0.8,0,1.5-0.2,2.2-0.5
				c0-1.4,0.4-2.7,1.1-3.9c0.5-0.9,1.1-1.6,1.9-2.3c-0.5-2.4-2.6-4.3-5.2-4.3C609.3,2.8,607.7,3.7,606.8,5.1z M594.6,8.6
				c2.1,1.3,3.3,3.4,3.7,5.7c0.5,0.2,1,0.3,1.6,0.3c0.9,0,1.8-0.3,2.6-0.7c0.7-0.4,1.2-1,1.7-1.6c-0.6-1.2-1-2.5-1-3.9
				c0-1,0.2-2,0.5-2.9c-1-1.1-2.4-1.8-3.9-1.8c-0.9,0-1.8,0.3-2.6,0.7c-1.2,0.7-2.1,1.9-2.5,3.3C594.7,8,594.6,8.3,594.6,8.6z
				 M585.4,17c0.1,0.3,0.2,0.6,0.3,0.9c2.4,0.1,4.5,1.2,6,3c1.4-0.3,2.7-1.3,3.4-2.6c0.4-0.7,0.6-1.5,0.7-2.3
				c-1.1-0.7-2.1-1.7-2.7-2.9c-0.5-0.9-0.8-1.8-1-2.8c-0.5-0.2-1-0.3-1.6-0.3c-1.9,0-3.6,1.1-4.6,2.7C585.2,14.1,585,15.6,585.4,17z
				 M580.2,26c0,1.9,0.9,3.5,2.3,4.5c1.2-0.7,2.5-1,3.8-1c1,0,1.9,0.2,2.8,0.6c1-1,1.7-2.4,1.7-4c0-0.8-0.2-1.6-0.5-2.3
				c-1.3,0-2.6-0.4-3.8-1.1c-0.9-0.5-1.6-1.2-2.2-1.9C582,21.3,580.2,23.4,580.2,26z"/>
		</g>
		<g>
			<path class="st0" d="M543.4,31.5c-0.1,0-0.2-0.7-0.2-1.2c0-3.3,2.6-5.9,5.7-5.9c3.2,0,5.7,2.6,5.7,5.8c0,0.5-0.1,1.2-0.2,1.2h2.7
				c0.1,0,0.1-0.8,0.1-1.2c0-4.8-3.7-8.6-8.3-8.6s-8.3,3.8-8.3,8.5c0,0.5,0,1.2,0.1,1.2h2.7V31.5z"/>
			<path class="st0" d="M519.7,25.9c0-3.6,2.3-6.6,5.4-7.7c-0.1-0.2-0.1-0.4-0.2-0.6c-0.5-2.1-0.3-4.3,0.8-6.2
				c1.4-2.5,4-4.1,6.8-4.1c0.5,0,1.1,0.1,1.6,0.2c0-0.2,0.1-0.4,0.1-0.6c0.5-2.1,1.9-3.9,3.7-5c1.2-0.7,2.6-1.1,3.9-1.1
				c2,0,3.8,0.8,5.3,2.1c1.5-1.8,3.6-2.9,6-2.9c3.5,0,6.5,2.4,7.5,5.6c0.8-0.3,1.7-0.5,2.6-0.5c1.4,0,2.7,0.4,3.9,1.1
				c3,1.8,4.5,5.4,3.8,8.8c2.2,0.4,4.2,1.9,5.4,3.9c1.8,3.2,1.2,7-1,9.5c1,0.8,1.7,2,2.2,2.9h-2.9c-0.4,0-0.8-0.9-1.4-1.3
				c-1.1,0.6-2.4,1.1-3.7,1.1c-1,0-1.9-0.3-2.8-0.7c-0.3,0.3-0.6,0.9-0.9,0.9h-3.3c0,0,0.1-0.8,0.1-1.2c0-7.8-6.2-14.2-13.7-14.2
				c-7.6,0-13.7,6.3-13.7,14.1c0,0.5,0,1.2,0.1,1.2H522C520.6,30.5,519.7,28.1,519.7,25.9z M564.6,21.6c0,0.1,0,0.2-0.1,0.3
				c-0.4,1.4-0.2,3,0.5,4.3c0.4,0.8,1,1.5,1.7,2c1.1-0.6,2.3-0.5,3.6-0.5l0,0c0.9,0,1.8-0.2,2.6,0.1c1.9-1.7,2.5-5,1.2-7.4
				c-0.9-1.5-2.4-2.5-4.1-2.6C568.9,19.8,566.8,21.2,564.6,21.6z M558.2,14.6v0.2c0.4,1.4,1.2,2.6,2.5,3.3c0.7,0.4,1.4,0.6,2.2,0.7
				c0.7-1.2,1.6-2.1,2.8-2.8c0.8-0.5,1.8-0.8,2.7-1c0.7-2.4-0.2-5.1-2.4-6.4c-0.8-0.5-1.7-0.7-2.6-0.7c-0.8,0-1.5,0.2-2.2,0.5
				C561,11,559.9,13.2,558.2,14.6z M548.9,5.1c1.2,2.2,1.2,4.7,0.4,6.9l0.1,0.2c1,1,2.3,1.6,3.7,1.6c0.8,0,1.5-0.2,2.2-0.5
				c0-1.4,0.4-2.7,1.1-3.9c0.5-0.9,1.1-1.6,1.9-2.3c-0.5-2.4-2.6-4.3-5.2-4.3C551.4,2.8,549.8,3.7,548.9,5.1z M536.7,8.6
				c2.1,1.3,3.3,3.4,3.7,5.7c0.5,0.2,1,0.3,1.6,0.3c0.9,0,1.8-0.3,2.6-0.7c0.7-0.4,1.2-1,1.7-1.6c-0.6-1.2-1-2.5-1-3.9
				c0-1,0.2-2,0.5-2.9c-1-1.1-2.4-1.8-3.9-1.8c-0.9,0-1.8,0.3-2.6,0.7c-1.2,0.7-2.1,1.9-2.5,3.3C536.8,8,536.7,8.3,536.7,8.6z
				 M527.5,17c0.1,0.3,0.2,0.6,0.3,0.9c2.4,0.1,4.5,1.2,6,3c1.4-0.3,2.7-1.3,3.4-2.6c0.4-0.7,0.6-1.5,0.7-2.3
				c-1.1-0.7-2.1-1.7-2.7-2.9c-0.5-0.9-0.8-1.8-1-2.8c-0.5-0.2-1-0.3-1.6-0.3c-1.9,0-3.6,1.1-4.6,2.7
				C527.3,14.1,527.1,15.6,527.5,17z M522.3,26c0,1.9,0.9,3.5,2.3,4.5c1.2-0.7,2.5-1,3.8-1c1,0,1.9,0.2,2.8,0.6c1.1-1,1.7-2.4,1.7-4
				c0-0.8-0.2-1.6-0.5-2.3c-1.3,0-2.6-0.4-3.8-1.1c-0.9-0.5-1.6-1.2-2.2-1.9C524.1,21.3,522.3,23.4,522.3,26z"/>
		</g>
		<g>
			<path class="st0" d="M485.5,31.5c-0.1,0-0.2-0.7-0.2-1.2c0-3.3,2.6-5.9,5.7-5.9c3.2,0,5.7,2.6,5.7,5.8c0,0.5-0.1,1.2-0.2,1.2h2.7
				c0.1,0,0.1-0.8,0.1-1.2c0-4.8-3.7-8.6-8.3-8.6c-4.6,0-8.3,3.8-8.3,8.5c0,0.5,0,1.2,0.1,1.2h2.7V31.5z"/>
			<path class="st0" d="M461.8,25.9c0-3.6,2.3-6.6,5.4-7.7c-0.1-0.2-0.1-0.4-0.2-0.6c-0.5-2.1-0.3-4.3,0.8-6.2
				c1.4-2.5,4-4.1,6.8-4.1c0.5,0,1.1,0.1,1.6,0.2c0-0.2,0.1-0.4,0.1-0.6c0.5-2.1,1.9-3.9,3.7-5c1.2-0.7,2.6-1.1,3.9-1.1
				c2,0,3.8,0.8,5.3,2.1c1.5-1.8,3.6-2.9,6-2.9c3.5,0,6.5,2.4,7.5,5.6c0.8-0.3,1.7-0.5,2.6-0.5c1.4,0,2.7,0.4,3.9,1.1
				c3,1.8,4.5,5.4,3.8,8.8c2.2,0.4,4.2,1.9,5.4,3.9c1.8,3.2,1.2,7-1,9.5c1,0.8,1.7,2,2.2,2.9h-2.9c-0.4,0-0.8-0.9-1.4-1.3
				c-1.1,0.6-2.4,1.1-3.7,1.1c-1,0-1.9-0.3-2.8-0.7c-0.3,0.3-0.6,0.9-0.9,0.9h-3.3c0,0,0.1-0.8,0.1-1.2c0-7.8-6.2-14.2-13.7-14.2
				s-13.7,6.3-13.7,14.1c0,0.5,0,1.2,0.1,1.2h-13.3C462.7,30.5,461.8,28.1,461.8,25.9z M506.7,21.6c0,0.1,0,0.2-0.1,0.3
				c-0.4,1.4-0.2,3,0.5,4.3c0.4,0.8,1,1.5,1.7,2c1.1-0.6,2.3-0.5,3.6-0.5l0,0c0.9,0,1.8-0.2,2.6,0.1c1.9-1.7,2.5-5,1.2-7.4
				c-0.9-1.5-2.4-2.5-4.1-2.6C511,19.8,508.9,21.2,506.7,21.6z M500.3,14.6v0.2c0.4,1.4,1.2,2.6,2.5,3.3c0.7,0.4,1.4,0.6,2.2,0.7
				c0.7-1.2,1.6-2.1,2.8-2.8c0.8-0.5,1.8-0.8,2.7-1c0.7-2.4-0.2-5.1-2.4-6.4c-0.8-0.5-1.7-0.7-2.6-0.7c-0.8,0-1.5,0.2-2.2,0.5
				C503.1,11,502,13.2,500.3,14.6z M491,5.1c1.2,2.2,1.2,4.7,0.4,6.9l0.1,0.2c1,1,2.3,1.6,3.7,1.6c0.8,0,1.5-0.2,2.2-0.5
				c0-1.4,0.4-2.7,1.1-3.9c0.5-0.9,1.1-1.6,1.9-2.3c-0.5-2.4-2.6-4.3-5.2-4.3C493.5,2.8,491.9,3.7,491,5.1z M478.8,8.6
				c2.1,1.3,3.3,3.4,3.7,5.7c0.5,0.2,1,0.3,1.6,0.3c0.9,0,1.8-0.3,2.6-0.7c0.7-0.4,1.2-1,1.7-1.6c-0.6-1.2-1-2.5-1-3.9
				c0-1,0.2-2,0.5-2.9c-1-1.1-2.4-1.8-3.9-1.8c-0.9,0-1.8,0.3-2.6,0.7c-1.2,0.7-2.1,1.9-2.5,3.3C478.9,8,478.8,8.3,478.8,8.6z
				 M469.6,17c0.1,0.3,0.2,0.6,0.3,0.9c2.4,0.1,4.5,1.2,6,3c1.4-0.3,2.7-1.3,3.4-2.6c0.4-0.7,0.6-1.5,0.7-2.3
				c-1.1-0.7-2.1-1.7-2.7-2.9c-0.5-0.9-0.8-1.8-1-2.8c-0.5-0.2-1-0.3-1.6-0.3c-1.9,0-3.6,1.1-4.6,2.7
				C469.4,14.1,469.2,15.6,469.6,17z M464.4,26c0,1.9,0.9,3.5,2.3,4.5c1.2-0.7,2.5-1,3.8-1c1,0,1.9,0.2,2.8,0.6c1.1-1,1.7-2.4,1.7-4
				c0-0.8-0.2-1.6-0.5-2.3c-1.3,0-2.6-0.4-3.8-1.1c-0.9-0.5-1.6-1.2-2.2-1.9C466.2,21.3,464.4,23.4,464.4,26z"/>
		</g>
		<g>
			<path class="st0" d="M427.6,31.5c-0.1,0-0.2-0.7-0.2-1.2c0-3.3,2.6-5.9,5.7-5.9c3.2,0,5.7,2.6,5.7,5.8c0,0.5-0.1,1.2-0.2,1.2h2.7
				c0.1,0,0.1-0.8,0.1-1.2c0-4.8-3.7-8.6-8.3-8.6c-4.6,0-8.3,3.8-8.3,8.5c0,0.5,0,1.2,0.1,1.2h2.7V31.5z"/>
			<path class="st0" d="M403.9,25.9c0-3.6,2.3-6.6,5.4-7.7c-0.1-0.2-0.1-0.4-0.2-0.6c-0.5-2.1-0.3-4.3,0.8-6.2
				c1.4-2.5,4-4.1,6.8-4.1c0.5,0,1.1,0.1,1.6,0.2c0-0.2,0.1-0.4,0.1-0.6c0.5-2.1,1.9-3.9,3.7-5c1.2-0.7,2.6-1.1,3.9-1.1
				c2,0,3.8,0.8,5.3,2.1c1.5-1.8,3.6-2.9,6-2.9c3.5,0,6.5,2.4,7.5,5.6c0.8-0.3,1.7-0.5,2.6-0.5c1.4,0,2.7,0.4,3.9,1.1
				c3,1.8,4.5,5.4,3.8,8.8c2.2,0.4,4.2,1.9,5.4,3.9c1.8,3.2,1.2,7-1,9.5c1,0.8,1.7,2,2.2,2.9h-2.9c-0.4,0-0.8-0.9-1.4-1.3
				c-1.1,0.6-2.4,1.1-3.7,1.1c-1,0-1.9-0.3-2.8-0.7c-0.3,0.3-0.6,0.9-0.9,0.9h-3.3c0,0,0.1-0.8,0.1-1.2c0-7.8-6.2-14.2-13.7-14.2
				s-13.7,6.3-13.7,14.1c0,0.5,0,1.2,0.1,1.2h-13.3C404.8,30.5,403.9,28.1,403.9,25.9z M448.8,21.6c0,0.1,0,0.2-0.1,0.3
				c-0.4,1.4-0.2,3,0.5,4.3c0.4,0.8,1,1.5,1.7,2c1.1-0.6,2.3-0.5,3.6-0.5l0,0c0.9,0,1.8-0.2,2.6,0.1c1.9-1.7,2.5-5,1.2-7.4
				c-0.9-1.5-2.4-2.5-4.1-2.6C453.1,19.8,451,21.2,448.8,21.6z M442.4,14.6v0.2c0.4,1.4,1.2,2.6,2.5,3.3c0.7,0.4,1.4,0.6,2.2,0.7
				c0.7-1.2,1.6-2.1,2.8-2.8c0.8-0.5,1.8-0.8,2.7-1c0.7-2.4-0.2-5.1-2.4-6.4c-0.8-0.5-1.7-0.7-2.6-0.7c-0.8,0-1.5,0.2-2.2,0.5
				C445.2,11,444.1,13.2,442.4,14.6z M433.1,5.1c1.2,2.2,1.2,4.7,0.4,6.9l0.1,0.2c1,1,2.3,1.6,3.7,1.6c0.8,0,1.5-0.2,2.2-0.5
				c0-1.4,0.4-2.7,1.1-3.9c0.5-0.9,1.1-1.6,1.9-2.3c-0.5-2.4-2.6-4.3-5.2-4.3C435.6,2.8,434,3.7,433.1,5.1z M420.9,8.6
				c2.1,1.3,3.3,3.4,3.7,5.7c0.5,0.2,1,0.3,1.6,0.3c0.9,0,1.8-0.3,2.6-0.7c0.7-0.4,1.2-1,1.7-1.6c-0.6-1.2-1-2.5-1-3.9
				c0-1,0.2-2,0.5-2.9c-1-1.1-2.4-1.8-3.9-1.8c-0.9,0-1.8,0.3-2.6,0.7c-1.2,0.7-2.1,1.9-2.5,3.3C421,8,420.9,8.3,420.9,8.6z
				 M411.7,17c0.1,0.3,0.2,0.6,0.3,0.9c2.4,0.1,4.5,1.2,6,3c1.4-0.3,2.7-1.3,3.4-2.6c0.4-0.7,0.6-1.5,0.7-2.3
				c-1.1-0.7-2.1-1.7-2.7-2.9c-0.5-0.9-0.8-1.8-1-2.8c-0.5-0.2-1-0.3-1.6-0.3c-1.9,0-3.6,1.1-4.6,2.7
				C411.5,14.1,411.3,15.6,411.7,17z M406.5,26c0,1.9,0.9,3.5,2.3,4.5c1.2-0.7,2.5-1,3.8-1c1,0,1.9,0.2,2.8,0.6c1.1-1,1.7-2.4,1.7-4
				c0-0.8-0.2-1.6-0.5-2.3c-1.3,0-2.6-0.4-3.8-1.1c-0.9-0.5-1.6-1.2-2.2-1.9C408.3,21.3,406.5,23.4,406.5,26z"/>
		</g>
		<g>
			<path class="st0" d="M369.7,31.5c-0.1,0-0.2-0.7-0.2-1.2c0-3.3,2.6-5.9,5.7-5.9c3.2,0,5.7,2.6,5.7,5.8c0,0.5-0.1,1.2-0.2,1.2h2.7
				c0.1,0,0.1-0.8,0.1-1.2c0-4.8-3.7-8.6-8.3-8.6c-4.6,0-8.3,3.8-8.3,8.5c0,0.5,0,1.2,0.1,1.2h2.7V31.5z"/>
			<path class="st0" d="M346,25.9c0-3.6,2.3-6.6,5.4-7.7c-0.1-0.2-0.1-0.4-0.2-0.6c-0.5-2.1-0.3-4.3,0.8-6.2c1.4-2.5,4-4.1,6.8-4.1
				c0.5,0,1.1,0.1,1.6,0.2c0-0.2,0.1-0.4,0.1-0.6c0.5-2.1,1.9-3.9,3.7-5c1.2-0.7,2.6-1.1,3.9-1.1c2,0,3.8,0.8,5.3,2.1
				c1.5-1.8,3.6-2.9,6-2.9c3.5,0,6.5,2.4,7.5,5.6c0.8-0.3,1.7-0.5,2.6-0.5c1.4,0,2.7,0.4,3.9,1.1c3,1.8,4.5,5.4,3.8,8.8
				c2.2,0.4,4.2,1.9,5.4,3.9c1.8,3.2,1.2,7-1,9.5c1,0.8,1.7,2,2.2,2.9h-2.9c-0.4,0-0.8-0.9-1.4-1.3c-1.1,0.6-2.4,1.1-3.7,1.1
				c-1,0-1.9-0.3-2.8-0.7c-0.3,0.3-0.6,0.9-0.9,0.9h-3.3c0,0,0.1-0.8,0.1-1.2c0-7.8-6.2-14.2-13.7-14.2c-7.6,0-13.7,6.3-13.7,14.1
				c0,0.5,0,1.2,0.1,1.2h-13.3C346.9,30.5,346,28.1,346,25.9z M390.9,21.6c0,0.1,0,0.2-0.1,0.3c-0.4,1.4-0.2,3,0.5,4.3
				c0.4,0.8,1,1.5,1.7,2c1.1-0.6,2.3-0.5,3.6-0.5l0,0c0.9,0,1.8-0.2,2.6,0.1c1.9-1.7,2.5-5,1.2-7.4c-0.9-1.5-2.4-2.5-4.1-2.6
				C395.2,19.8,393.1,21.2,390.9,21.6z M384.5,14.6v0.2c0.4,1.4,1.2,2.6,2.5,3.3c0.7,0.4,1.4,0.6,2.2,0.7c0.7-1.2,1.6-2.1,2.8-2.8
				c0.8-0.5,1.8-0.8,2.7-1c0.7-2.4-0.2-5.1-2.4-6.4c-0.8-0.5-1.7-0.7-2.6-0.7c-0.8,0-1.5,0.2-2.2,0.5
				C387.3,11,386.2,13.2,384.5,14.6z M375.2,5.1c1.2,2.2,1.2,4.7,0.4,6.9l0.1,0.2c1,1,2.3,1.6,3.7,1.6c0.8,0,1.5-0.2,2.2-0.5
				c0-1.4,0.4-2.7,1.1-3.9c0.5-0.9,1.1-1.6,1.9-2.3c-0.5-2.4-2.6-4.3-5.2-4.3C377.7,2.8,376.1,3.7,375.2,5.1z M363,8.6
				c2.1,1.3,3.3,3.4,3.7,5.7c0.5,0.2,1,0.3,1.6,0.3c0.9,0,1.8-0.3,2.6-0.7c0.7-0.4,1.2-1,1.7-1.6c-0.6-1.2-1-2.5-1-3.9
				c0-1,0.2-2,0.5-2.9c-1-1.1-2.4-1.8-3.9-1.8c-0.9,0-1.8,0.3-2.6,0.7c-1.2,0.7-2.1,1.9-2.5,3.3C363.1,8,363,8.3,363,8.6z M353.8,17
				c0.1,0.3,0.2,0.6,0.3,0.9c2.4,0.1,4.5,1.2,6,3c1.4-0.3,2.7-1.3,3.4-2.6c0.4-0.7,0.6-1.5,0.7-2.3c-1.1-0.7-2.1-1.7-2.7-2.9
				c-0.5-0.9-0.8-1.8-1-2.8c-0.5-0.2-1-0.3-1.6-0.3c-1.9,0-3.6,1.1-4.6,2.7C353.6,14.1,353.4,15.6,353.8,17z M348.6,26
				c0,1.9,0.9,3.5,2.3,4.5c1.2-0.7,2.5-1,3.8-1c1,0,1.9,0.2,2.8,0.6c1-1,1.7-2.4,1.7-4c0-0.8-0.2-1.6-0.5-2.3
				c-1.3,0-2.6-0.4-3.8-1.1c-0.9-0.5-1.6-1.2-2.2-1.9C350.4,21.3,348.6,23.4,348.6,26z"/>
		</g>
		<g>
			<path class="st0" d="M311.8,31.5c-0.1,0-0.2-0.7-0.2-1.2c0-3.3,2.6-5.9,5.7-5.9c3.2,0,5.7,2.6,5.7,5.8c0,0.5-0.1,1.2-0.2,1.2h2.7
				c0.1,0,0.1-0.8,0.1-1.2c0-4.8-3.7-8.6-8.3-8.6c-4.6,0-8.3,3.8-8.3,8.5c0,0.5,0,1.2,0.1,1.2h2.7V31.5z"/>
			<path class="st0" d="M288.1,25.9c0-3.6,2.3-6.6,5.4-7.7c-0.1-0.2-0.1-0.4-0.2-0.6c-0.5-2.1-0.3-4.3,0.8-6.2
				c1.4-2.5,4-4.1,6.8-4.1c0.5,0,1.1,0.1,1.6,0.2c0-0.2,0.1-0.4,0.1-0.6c0.5-2.1,1.9-3.9,3.7-5c1.2-0.7,2.6-1.1,3.9-1.1
				c2,0,3.8,0.8,5.3,2.1c1.5-1.8,3.6-2.9,6-2.9c3.5,0,6.5,2.4,7.5,5.6c0.8-0.3,1.7-0.5,2.6-0.5c1.4,0,2.7,0.4,3.9,1.1
				c3,1.8,4.5,5.4,3.8,8.8c2.2,0.4,4.2,1.9,5.4,3.9c1.8,3.2,1.2,7-1,9.5c1,0.8,1.7,2,2.2,2.9H343c-0.4,0-0.8-0.9-1.4-1.3
				c-1.1,0.6-2.4,1.1-3.7,1.1c-1,0-1.9-0.3-2.8-0.7c-0.3,0.3-0.6,0.9-0.9,0.9h-3.3c0,0,0.1-0.8,0.1-1.2c0-7.8-6.2-14.2-13.7-14.2
				c-7.6,0-13.7,6.3-13.7,14.1c0,0.5,0,1.2,0.1,1.2h-13.3C289,30.5,288.1,28.1,288.1,25.9z M333,21.6c0,0.1,0,0.2-0.1,0.3
				c-0.4,1.4-0.2,3,0.5,4.3c0.4,0.8,1,1.5,1.7,2c1.1-0.6,2.3-0.5,3.6-0.5l0,0c0.9,0,1.8-0.2,2.6,0.1c1.9-1.7,2.5-5,1.2-7.4
				c-0.9-1.5-2.4-2.5-4.1-2.6C337.3,19.8,335.2,21.2,333,21.6z M326.6,14.6v0.2c0.4,1.4,1.2,2.6,2.5,3.3c0.7,0.4,1.4,0.6,2.2,0.7
				c0.7-1.2,1.6-2.1,2.8-2.8c0.8-0.5,1.8-0.8,2.7-1c0.7-2.4-0.2-5.1-2.4-6.4c-0.8-0.5-1.7-0.7-2.6-0.7c-0.8,0-1.5,0.2-2.2,0.5
				C329.4,11,328.3,13.2,326.6,14.6z M317.3,5.1c1.2,2.2,1.2,4.7,0.4,6.9l0.1,0.2c1,1,2.3,1.6,3.7,1.6c0.8,0,1.5-0.2,2.2-0.5
				c0-1.4,0.4-2.7,1.1-3.9c0.5-0.9,1.1-1.6,1.9-2.3c-0.5-2.4-2.6-4.3-5.2-4.3C319.8,2.8,318.2,3.7,317.3,5.1z M305.1,8.6
				c2.1,1.3,3.3,3.4,3.7,5.7c0.5,0.2,1,0.3,1.6,0.3c0.9,0,1.8-0.3,2.6-0.7c0.7-0.4,1.2-1,1.7-1.6c-0.6-1.2-1-2.5-1-3.9
				c0-1,0.2-2,0.5-2.9c-1-1.1-2.4-1.8-3.9-1.8c-0.9,0-1.8,0.3-2.6,0.7c-1.2,0.7-2.1,1.9-2.5,3.3C305.2,8,305.1,8.3,305.1,8.6z
				 M295.9,17c0.1,0.3,0.2,0.6,0.3,0.9c2.4,0.1,4.5,1.2,6,3c1.4-0.3,2.7-1.3,3.4-2.6c0.4-0.7,0.6-1.5,0.7-2.3
				c-1.1-0.7-2.1-1.7-2.7-2.9c-0.5-0.9-0.8-1.8-1-2.8c-0.5-0.2-1-0.3-1.6-0.3c-1.9,0-3.6,1.1-4.6,2.7
				C295.7,14.1,295.5,15.6,295.9,17z M290.7,26c0,1.9,0.9,3.5,2.3,4.5c1.2-0.7,2.5-1,3.8-1c1,0,1.9,0.2,2.8,0.6c1.1-1,1.7-2.4,1.7-4
				c0-0.8-0.2-1.6-0.5-2.3c-1.3,0-2.6-0.4-3.8-1.1c-0.9-0.5-1.6-1.2-2.2-1.9C292.5,21.3,290.7,23.4,290.7,26z"/>
		</g>
		<g>
			<path class="st0" d="M253.9,31.5c-0.1,0-0.2-0.7-0.2-1.2c0-3.3,2.6-5.9,5.7-5.9c3.2,0,5.7,2.6,5.7,5.8c0,0.5-0.1,1.2-0.2,1.2h2.7
				c0.1,0,0.1-0.8,0.1-1.2c0-4.8-3.7-8.6-8.3-8.6c-4.6,0-8.3,3.8-8.3,8.5c0,0.5,0,1.2,0.1,1.2h2.7V31.5z"/>
			<path class="st0" d="M230.2,25.9c0-3.6,2.3-6.6,5.4-7.7c-0.1-0.2-0.1-0.4-0.2-0.6c-0.5-2.1-0.3-4.3,0.8-6.2
				c1.4-2.5,4-4.1,6.8-4.1c0.5,0,1.1,0.1,1.6,0.2c0-0.2,0.1-0.4,0.1-0.6c0.5-2.1,1.9-3.9,3.7-5c1.2-0.7,2.6-1.1,3.9-1.1
				c2,0,3.8,0.8,5.3,2.1c1.5-1.8,3.6-2.9,6-2.9c3.5,0,6.5,2.4,7.5,5.6c0.8-0.3,1.7-0.5,2.6-0.5c1.4,0,2.7,0.4,3.9,1.1
				c3,1.8,4.5,5.4,3.8,8.8c2.2,0.4,4.2,1.9,5.4,3.9c1.8,3.2,1.2,7-1,9.5c1,0.8,1.7,2,2.2,2.9h-2.8c-0.4,0-0.8-0.9-1.4-1.3
				c-1.1,0.6-2.4,1.1-3.7,1.1c-1,0-1.9-0.3-2.8-0.7c-0.3,0.3-0.6,0.9-0.9,0.9h-3.2c0,0,0.1-0.8,0.1-1.2c0-7.8-6.2-14.2-13.7-14.2
				c-7.6,0-13.7,6.3-13.7,14.1c0,0.5,0,1.2,0.1,1.2h-13.3C231.1,30.5,230.2,28.1,230.2,25.9z M275.1,21.6c0,0.1,0,0.2-0.1,0.3
				c-0.4,1.4-0.2,3,0.5,4.3c0.4,0.8,1,1.5,1.7,2c1.1-0.6,2.3-0.5,3.6-0.5l0,0c0.9,0,1.8-0.2,2.6,0.1c1.9-1.7,2.5-5,1.2-7.4
				c-0.9-1.5-2.4-2.5-4.1-2.6C279.4,19.8,277.3,21.2,275.1,21.6z M268.7,14.6v0.2c0.4,1.4,1.2,2.6,2.5,3.3c0.7,0.4,1.4,0.6,2.2,0.7
				c0.7-1.2,1.6-2.1,2.8-2.8c0.8-0.5,1.8-0.8,2.7-1c0.7-2.4-0.2-5.1-2.4-6.4c-0.8-0.5-1.7-0.7-2.6-0.7c-0.8,0-1.5,0.2-2.2,0.5
				C271.5,11,270.4,13.2,268.7,14.6z M259.4,5.1c1.2,2.2,1.2,4.7,0.4,6.9l0.1,0.2c1,1,2.3,1.6,3.7,1.6c0.8,0,1.5-0.2,2.2-0.5
				c0-1.4,0.4-2.7,1.1-3.9c0.5-0.9,1.1-1.6,1.9-2.3c-0.5-2.4-2.6-4.3-5.2-4.3C261.9,2.8,260.3,3.7,259.4,5.1z M247.2,8.6
				c2.1,1.3,3.3,3.4,3.7,5.7c0.5,0.2,1,0.3,1.6,0.3c0.9,0,1.8-0.3,2.6-0.7c0.7-0.4,1.2-1,1.7-1.6c-0.6-1.2-1-2.5-1-3.9
				c0-1,0.2-2,0.5-2.9c-1-1.1-2.4-1.8-3.9-1.8c-0.9,0-1.8,0.3-2.6,0.7c-1.2,0.7-2.1,1.9-2.5,3.3C247.3,8,247.2,8.3,247.2,8.6z
				 M238,17c0.1,0.3,0.2,0.6,0.3,0.9c2.4,0.1,4.5,1.2,6,3c1.4-0.3,2.7-1.3,3.4-2.6c0.4-0.7,0.6-1.5,0.7-2.3
				c-1.1-0.7-2.1-1.7-2.7-2.9c-0.5-0.9-0.8-1.8-1-2.8c-0.5-0.2-1-0.3-1.6-0.3c-1.9,0-3.6,1.1-4.6,2.7C237.8,14.1,237.6,15.6,238,17z
				 M232.8,26c0,1.9,0.9,3.5,2.3,4.5c1.2-0.7,2.5-1,3.8-1c1,0,1.9,0.2,2.8,0.6c1.1-1,1.7-2.4,1.7-4c0-0.8-0.2-1.6-0.5-2.3
				c-1.3,0-2.6-0.4-3.8-1.1c-0.9-0.5-1.6-1.2-2.2-1.9C234.6,21.3,232.8,23.4,232.8,26z"/>
		</g>
		<g>
			<path class="st0" d="M196,31.5c-0.1,0-0.2-0.7-0.2-1.2c0-3.3,2.6-5.9,5.7-5.9c3.2,0,5.7,2.6,5.7,5.8c0,0.5-0.1,1.2-0.2,1.2h2.7
				c0.1,0,0.1-0.8,0.1-1.2c0-4.8-3.7-8.6-8.3-8.6s-8.3,3.8-8.3,8.5c0,0.5,0,1.2,0.1,1.2h2.7V31.5z"/>
			<path class="st0" d="M172.3,25.9c0-3.6,2.3-6.6,5.4-7.7c-0.1-0.2-0.1-0.4-0.2-0.6c-0.5-2.1-0.3-4.3,0.8-6.2
				c1.4-2.5,4-4.1,6.8-4.1c0.5,0,1.1,0.1,1.6,0.2c0-0.2,0.1-0.4,0.1-0.6c0.5-2.1,1.9-3.9,3.7-5c1.2-0.7,2.6-1.1,3.9-1.1
				c2,0,3.8,0.8,5.3,2.1c1.5-1.8,3.6-2.9,6-2.9c3.5,0,6.5,2.4,7.5,5.6c0.8-0.3,1.7-0.5,2.6-0.5c1.4,0,2.7,0.4,3.9,1.1
				c3,1.8,4.5,5.4,3.8,8.8c2.2,0.4,4.2,1.9,5.4,3.9c1.8,3.2,1.2,7-1,9.5c1,0.8,1.7,2,2.2,2.9h-2.9c-0.4,0-0.8-0.9-1.4-1.3
				c-1.1,0.6-2.4,1.1-3.7,1.1c-1,0-1.9-0.3-2.8-0.7c-0.3,0.3-0.6,0.9-0.9,0.9h-3.3c0,0,0.1-0.8,0.1-1.2c0-7.8-6.2-14.2-13.7-14.2
				c-7.6,0-13.7,6.3-13.7,14.1c0,0.5,0,1.2,0.1,1.2h-13.3C173.2,30.5,172.3,28.1,172.3,25.9z M217.2,21.6c0,0.1,0,0.2-0.1,0.3
				c-0.4,1.4-0.2,3,0.5,4.3c0.4,0.8,1,1.5,1.7,2c1.1-0.6,2.3-0.5,3.6-0.5l0,0c0.9,0,1.8-0.2,2.6,0.1c1.9-1.7,2.5-5,1.2-7.4
				c-0.9-1.5-2.4-2.5-4.1-2.6C221.5,19.8,219.4,21.2,217.2,21.6z M210.8,14.6v0.2c0.4,1.4,1.2,2.6,2.5,3.3c0.7,0.4,1.4,0.6,2.2,0.7
				c0.7-1.2,1.6-2.1,2.8-2.8c0.8-0.5,1.8-0.8,2.7-1c0.7-2.4-0.2-5.1-2.4-6.4c-0.8-0.5-1.7-0.7-2.6-0.7c-0.8,0-1.5,0.2-2.2,0.5
				C213.6,11,212.5,13.2,210.8,14.6z M201.5,5.1c1.2,2.2,1.2,4.7,0.4,6.9l0.1,0.2c1,1,2.3,1.6,3.7,1.6c0.8,0,1.5-0.2,2.2-0.5
				c0-1.4,0.4-2.7,1.1-3.9c0.5-0.9,1.1-1.6,1.9-2.3c-0.5-2.4-2.6-4.3-5.2-4.3C204,2.8,202.4,3.7,201.5,5.1z M189.3,8.6
				c2.1,1.3,3.3,3.4,3.7,5.7c0.5,0.2,1,0.3,1.6,0.3c0.9,0,1.8-0.3,2.6-0.7c0.7-0.4,1.2-1,1.7-1.6c-0.6-1.2-1-2.5-1-3.9
				c0-1,0.2-2,0.5-2.9c-1-1.1-2.4-1.8-3.9-1.8c-0.9,0-1.8,0.3-2.6,0.7c-1.2,0.7-2.1,1.9-2.5,3.3C189.4,8,189.3,8.3,189.3,8.6z
				 M180.1,17c0.1,0.3,0.2,0.6,0.3,0.9c2.4,0.1,4.5,1.2,6,3c1.4-0.3,2.7-1.3,3.4-2.6c0.4-0.7,0.6-1.5,0.7-2.3
				c-1.1-0.7-2.1-1.7-2.7-2.9c-0.5-0.9-0.8-1.8-1-2.8c-0.5-0.2-1-0.3-1.6-0.3c-1.9,0-3.6,1.1-4.6,2.7
				C179.9,14.1,179.7,15.6,180.1,17z M174.9,26c0,1.9,0.9,3.5,2.3,4.5c1.2-0.7,2.5-1,3.8-1c1,0,1.9,0.2,2.8,0.6c1.1-1,1.7-2.4,1.7-4
				c0-0.8-0.2-1.6-0.5-2.3c-1.3,0-2.6-0.4-3.8-1.1c-0.9-0.5-1.6-1.2-2.2-1.9C176.7,21.3,174.9,23.4,174.9,26z"/>
		</g>
		<g>
			<path class="st0" d="M138.1,31.5c-0.1,0-0.2-0.7-0.2-1.2c0-3.3,2.6-5.9,5.7-5.9c3.2,0,5.7,2.6,5.7,5.8c0,0.5-0.1,1.2-0.2,1.2h2.7
				c0.1,0,0.1-0.8,0.1-1.2c0-4.8-3.7-8.6-8.3-8.6s-8.3,3.8-8.3,8.5c0,0.5,0,1.2,0.1,1.2h2.7V31.5z"/>
			<path class="st0" d="M114.4,25.9c0-3.6,2.3-6.6,5.4-7.7c-0.1-0.2-0.1-0.4-0.2-0.6c-0.5-2.1-0.3-4.3,0.8-6.2
				c1.4-2.5,4-4.1,6.8-4.1c0.5,0,1.1,0.1,1.6,0.2c0-0.2,0.1-0.4,0.1-0.6c0.5-2.1,1.9-3.9,3.7-5c1.2-0.7,2.6-1.1,3.9-1.1
				c2,0,3.8,0.8,5.3,2.1c1.5-1.8,3.6-2.9,6-2.9c3.5,0,6.5,2.4,7.5,5.6c0.8-0.3,1.7-0.5,2.6-0.5c1.4,0,2.7,0.4,3.9,1.1
				c3,1.8,4.5,5.4,3.8,8.8c2.2,0.4,4.2,1.9,5.4,3.9c1.8,3.2,1.2,7-1,9.5c1,0.8,1.7,2,2.2,2.9h-2.9c-0.4,0-0.8-0.9-1.4-1.3
				c-1.1,0.6-2.4,1.1-3.7,1.1c-1,0-1.9-0.3-2.8-0.7c-0.3,0.3-0.6,0.9-0.9,0.9h-3.3c0,0,0.1-0.8,0.1-1.2c0-7.8-6.2-14.2-13.7-14.2
				c-7.6,0-13.7,6.3-13.7,14.1c0,0.5,0,1.2,0.1,1.2h-13.3C115.3,30.5,114.4,28.1,114.4,25.9z M159.3,21.6c0,0.1,0,0.2-0.1,0.3
				c-0.4,1.4-0.2,3,0.5,4.3c0.4,0.8,1,1.5,1.7,2c1.1-0.6,2.3-0.5,3.6-0.5l0,0c0.9,0,1.8-0.2,2.6,0.1c1.9-1.7,2.5-5,1.2-7.4
				c-0.9-1.5-2.4-2.5-4.1-2.6C163.6,19.8,161.5,21.2,159.3,21.6z M152.9,14.6v0.2c0.4,1.4,1.2,2.6,2.5,3.3c0.7,0.4,1.4,0.6,2.2,0.7
				c0.7-1.2,1.6-2.1,2.8-2.8c0.8-0.5,1.8-0.8,2.7-1c0.7-2.4-0.2-5.1-2.4-6.4c-0.8-0.5-1.7-0.7-2.6-0.7c-0.8,0-1.5,0.2-2.2,0.5
				C155.7,11,154.6,13.2,152.9,14.6z M143.6,5.1c1.2,2.2,1.2,4.7,0.4,6.9l0.2,0.2c1,1,2.3,1.6,3.7,1.6c0.8,0,1.5-0.2,2.2-0.5
				c0-1.4,0.4-2.7,1.1-3.9c0.5-0.9,1.1-1.6,1.9-2.3c-0.5-2.4-2.6-4.3-5.2-4.3C146.1,2.8,144.5,3.7,143.6,5.1z M131.4,8.6
				c2.1,1.3,3.3,3.4,3.7,5.7c0.5,0.2,1,0.3,1.6,0.3c0.9,0,1.8-0.3,2.6-0.7c0.7-0.4,1.2-1,1.7-1.6c-0.6-1.2-1-2.5-1-3.9
				c0-1,0.2-2,0.5-2.9c-1-1.1-2.4-1.8-3.9-1.8c-0.9,0-1.8,0.3-2.6,0.7c-1.2,0.7-2.1,1.9-2.5,3.3C131.5,8,131.4,8.3,131.4,8.6z
				 M122.2,17c0.1,0.3,0.2,0.6,0.3,0.9c2.4,0.1,4.5,1.2,6,3c1.4-0.3,2.7-1.3,3.4-2.6c0.4-0.7,0.6-1.5,0.7-2.3
				c-1.1-0.7-2.1-1.7-2.7-2.9c-0.5-0.9-0.8-1.8-1-2.8c-0.5-0.2-1-0.3-1.6-0.3c-1.9,0-3.6,1.1-4.6,2.7C122,14.1,121.8,15.6,122.2,17z
				 M117,26c0,1.9,0.9,3.5,2.3,4.5c1.2-0.7,2.5-1,3.8-1c1,0,1.9,0.2,2.8,0.6c1.1-1,1.7-2.4,1.7-4c0-0.8-0.2-1.6-0.5-2.3
				c-1.3,0-2.6-0.4-3.8-1.1c-0.9-0.5-1.6-1.2-2.2-1.9C118.8,21.3,117,23.4,117,26z"/>
		</g>
		<g>
			<path class="st0" d="M80.2,31.5c-0.1,0-0.2-0.7-0.2-1.2c0-3.3,2.6-5.9,5.7-5.9c3.2,0,5.7,2.6,5.7,5.8c0,0.5-0.1,1.2-0.2,1.2h2.7
				c0.1,0,0.1-0.8,0.1-1.2c0-4.8-3.7-8.6-8.3-8.6c-4.6,0-8.3,3.8-8.3,8.5c0,0.5,0,1.2,0.1,1.2h2.7V31.5z"/>
			<path class="st0" d="M56.5,25.9c0-3.6,2.3-6.6,5.4-7.7c-0.1-0.2-0.1-0.4-0.2-0.6c-0.5-2.1-0.3-4.3,0.8-6.2c1.4-2.5,4-4.1,6.8-4.1
				c0.5,0,1.1,0.1,1.6,0.2c0-0.2,0.1-0.4,0.1-0.6c0.5-2.1,1.9-3.9,3.7-5c1.2-0.7,2.6-1.1,3.9-1.1c2,0,3.8,0.8,5.3,2.1
				c1.5-1.8,3.6-2.9,6-2.9c3.5,0,6.5,2.4,7.5,5.6c0.8-0.3,1.7-0.5,2.6-0.5c1.4,0,2.7,0.4,3.9,1.1c3,1.8,4.5,5.4,3.8,8.8
				c2.2,0.4,4.2,1.9,5.4,3.9c1.8,3.2,1.2,7-1,9.5c1,0.8,1.7,2,2.2,2.9h-2.9c-0.4,0-0.8-0.9-1.4-1.3c-1.1,0.6-2.4,1.1-3.7,1.1
				c-1,0-1.9-0.3-2.8-0.7c-0.3,0.3-0.6,0.9-0.9,0.9h-3.3c0,0,0.1-0.8,0.1-1.2c0-7.8-6.2-14.2-13.7-14.2C78.1,15.9,72,22.2,72,30
				c0,0.5,0,1.2,0.1,1.2H58.8C57.4,30.5,56.5,28.1,56.5,25.9z M101.4,21.6c0,0.1,0,0.2-0.1,0.3c-0.4,1.4-0.2,3,0.5,4.3
				c0.4,0.8,1,1.5,1.7,2c1.1-0.6,2.3-0.5,3.6-0.5l0,0c0.9,0,1.8-0.2,2.6,0.1c1.9-1.7,2.5-5,1.2-7.4c-0.9-1.5-2.4-2.5-4.1-2.6
				C105.7,19.8,103.6,21.2,101.4,21.6z M95,14.6v0.2c0.4,1.4,1.2,2.6,2.5,3.3c0.7,0.4,1.4,0.6,2.2,0.7c0.7-1.2,1.6-2.1,2.8-2.8
				c0.8-0.5,1.8-0.8,2.7-1c0.7-2.4-0.2-5.1-2.4-6.4c-0.8-0.5-1.7-0.7-2.6-0.7c-0.8,0-1.5,0.2-2.2,0.5C97.8,11,96.7,13.2,95,14.6z
				 M85.7,5.1c1.2,2.2,1.2,4.7,0.4,6.9l0.1,0.2c1,1,2.3,1.6,3.7,1.6c0.8,0,1.5-0.2,2.2-0.5c0-1.4,0.4-2.7,1.1-3.9
				c0.5-0.9,1.1-1.6,1.9-2.3c-0.5-2.4-2.6-4.3-5.2-4.3C88.2,2.8,86.6,3.7,85.7,5.1z M73.5,8.6c2.1,1.3,3.3,3.4,3.7,5.7
				c0.5,0.2,1,0.3,1.6,0.3c0.9,0,1.8-0.3,2.6-0.7c0.7-0.4,1.2-1,1.7-1.6c-0.6-1.2-1-2.5-1-3.9c0-1,0.2-2,0.5-2.9
				c-1-1.1-2.4-1.8-3.9-1.8c-0.9,0-1.8,0.3-2.6,0.7c-1.2,0.7-2.1,1.9-2.5,3.3C73.6,8,73.5,8.3,73.5,8.6z M64.3,17
				c0.1,0.3,0.2,0.6,0.3,0.9c2.4,0.1,4.5,1.2,6,3c1.4-0.3,2.7-1.3,3.4-2.6c0.4-0.7,0.6-1.5,0.7-2.3c-1.1-0.7-2.1-1.7-2.7-2.9
				c-0.5-0.9-0.8-1.8-1-2.8c-0.5-0.2-1-0.3-1.6-0.3c-1.9,0-3.6,1.1-4.6,2.7C64.1,14.1,63.9,15.6,64.3,17z M59.1,26
				c0,1.9,0.9,3.5,2.3,4.5c1.2-0.7,2.5-1,3.8-1c1,0,1.9,0.2,2.8,0.6c1-1,1.7-2.4,1.7-4c0-0.8-0.2-1.6-0.5-2.3
				c-1.3,0-2.6-0.4-3.8-1.1c-0.9-0.5-1.6-1.2-2.2-1.9C60.9,21.3,59.1,23.4,59.1,26z"/>
		</g>
		<g>
			<path class="st0" d="M22.3,31.5c-0.1,0-0.2-0.7-0.2-1.2c0-3.3,2.6-5.9,5.7-5.9c3.2,0,5.7,2.6,5.7,5.8c0,0.5-0.1,1.2-0.2,1.2H36
				c0.1,0,0.1-0.8,0.1-1.2c0-4.8-3.7-8.6-8.3-8.6s-8.3,3.8-8.3,8.5c0,0.5,0,1.2,0.1,1.2h2.7V31.5z"/>
			<path class="st0" d="M0,21.4v9.3c0.3,0.4,0.6,0.7,0.9,0.9h13.3c0,0-0.1-0.8-0.1-1.2c0-7.8,6.2-14.1,13.7-14.1
				c7.6,0,13.7,6.3,13.7,14.2c0,0.5,0,1.2-0.1,1.2h3.3c0.3,0,0.5-0.6,0.9-0.9c0.9,0.4,1.8,0.7,2.8,0.7c1.3,0,2.6-0.4,3.7-1.1
				c0.5,0.4,1,1.3,1.4,1.3h2.9c-0.5-1-1.3-2.1-2.2-2.9c2.3-2.6,2.8-6.3,1-9.5c-1.2-2.1-3.1-3.5-5.4-3.9c0.7-3.4-0.8-7-3.8-8.8
				c-1.2-0.7-2.6-1.1-3.9-1.1c-0.9,0-1.8,0.2-2.6,0.5c-1-3.3-4-5.6-7.5-5.6c-2.4,0-4.5,1.1-6,2.9c-1.4-1.3-3.3-2.1-5.3-2.1
				c-1.4,0-2.7,0.4-3.9,1.1c-1.8,1.1-3.1,2.9-3.7,5C13,7.5,13,7.7,13,7.9c-0.5-0.1-1.1-0.2-1.6-0.2c-2.8,0-5.4,1.6-6.8,4.1
				c-1.1,1.9-1.3,4.1-0.8,6.2c0.1,0.2,0.1,0.4,0.2,0.6C2.4,18.8,1,19.9,0,21.4z M49,17.7c1.7,0.2,3.3,1.1,4.1,2.6
				c1.3,2.3,0.7,5.7-1.2,7.4c-0.8-0.3-1.7-0.1-2.6-0.1l0,0c-1.3,0-2.5,0-3.6,0.5c-0.7-0.5-1.3-1.2-1.7-2c-0.7-1.3-0.9-2.9-0.5-4.3
				c0-0.1,0-0.2,0.1-0.3C45.7,21.2,47.8,19.8,49,17.7z M40,8.5C40.7,8.2,41.4,8,42.2,8c0.9,0,1.8,0.3,2.6,0.7c2.2,1.3,3.1,4,2.4,6.4
				c-1,0.2-1.9,0.5-2.7,1c-1.2,0.7-2.1,1.7-2.8,2.8c-0.8-0.1-1.5-0.3-2.2-0.7c-1.2-0.7-2.1-1.9-2.5-3.3v-0.2
				C38.8,13.2,39.9,11,40,8.5z M32.1,2.8c2.5,0,4.6,1.8,5.2,4.3c-0.7,0.6-1.4,1.4-1.9,2.3c-0.7,1.2-1,2.5-1.1,3.9
				c-0.7,0.3-1.4,0.5-2.2,0.5c-1.4,0-2.7-0.6-3.7-1.6L28.2,12c0.8-2.2,0.7-4.7-0.4-6.9C28.7,3.7,30.3,2.8,32.1,2.8z M15.7,7.6
				c0.4-1.4,1.2-2.6,2.5-3.3c0.8-0.5,1.7-0.7,2.6-0.7c1.5,0,2.9,0.7,3.9,1.8c-0.3,0.9-0.5,1.9-0.5,2.9c0,1.4,0.3,2.7,1,3.9
				c-0.4,0.6-1,1.2-1.7,1.6c-0.8,0.5-1.7,0.7-2.6,0.7c-0.5,0-1.1-0.1-1.6-0.3c-0.4-2.3-1.6-4.4-3.7-5.7C15.6,8.3,15.7,8,15.7,7.6z
				 M6.9,12.8c0.9-1.7,2.7-2.7,4.6-2.7c0.5,0,1.1,0.1,1.6,0.3c0.2,1,0.5,1.9,1,2.8c0.7,1.2,1.6,2.2,2.7,2.9
				c-0.1,0.8-0.3,1.5-0.7,2.3c-0.7,1.3-2,2.3-3.4,2.6c-1.4-1.8-3.6-3-6-3c-0.1-0.3-0.2-0.6-0.3-0.9C6,15.6,6.2,14.1,6.9,12.8z
				 M5.3,20.7c0.6,0.8,1.3,1.4,2.2,1.9c1.1,0.7,2.4,1.1,3.8,1.1c0.3,0.7,0.5,1.5,0.5,2.3c0,1.6-0.7,3-1.7,4
				c-0.9-0.4-1.8-0.6-2.8-0.6c-1.3,0-2.6,0.4-3.8,1c-1.4-1-2.3-2.6-2.3-4.5C1.2,23.4,3,21.3,5.3,20.7z"/>
		</g>
	</g>
</g>
</svg>
