<?xml version="1.0" encoding="utf-8"?>
<!-- Generator: Adobe Illustrator 20.1.0, SVG Export Plug-In . SVG Version: 6.00 Build 0)  -->
<svg version="1.1" id="Слой_1" xmlns="http://www.w3.org/2000/svg" xmlns:xlink="http://www.w3.org/1999/xlink" x="0px" y="0px"
	 viewBox="0 0 693.4 32.5" style="enable-background:new 0 0 693.4 32.5;" xml:space="preserve">
<style type="text/css">
	.st0{fill:#FAFAFA;}
</style>
<g>
	<rect class="st0" width="693.4" height="4.9"/>
	<g>
		<g>
			<path class="st0" d="M659.2,1.2h-2.7c-0.1,0-0.1,0.7-0.1,1.2c0,4.7,3.7,8.5,8.3,8.5s8.3-3.8,8.3-8.6c0-0.4,0-1.2-0.1-1.2h-2.7
				c0.1,0,0.2,0.7,0.2,1.2c0,3.2-2.5,5.8-5.7,5.8c-3.1,0-5.7-2.6-5.7-5.9c0-0.5,0.1-1.2,0.2-1.2V1.2z"/>
			<path class="st0" d="M637.8,1.3h13.3C651,1.3,651,2,651,2.5c0,7.8,6.1,14.1,13.7,14.1c7.5,0,13.7-6.4,13.7-14.2
				c0-0.4-0.1-1.2-0.1-1.2h3.3c0.3,0,0.6,0.6,0.9,0.9c0.9-0.4,1.8-0.7,2.8-0.7c1.3,0,2.6,0.5,3.7,1.1c0.6-0.4,1-1.3,1.4-1.3h2.9
				c-0.5,0.9-1.2,2.1-2.2,2.9c2.2,2.5,2.8,6.3,1,9.5c-1.2,2-3.2,3.5-5.4,3.9c0.7,3.4-0.8,7-3.8,8.8c-1.2,0.7-2.5,1.1-3.9,1.1
				c-0.9,0-1.8-0.2-2.6-0.5c-1,3.2-4,5.6-7.5,5.6c-2.4,0-4.5-1.1-6-2.9c-1.5,1.3-3.3,2.1-5.3,2.1c-1.3,0-2.7-0.4-3.9-1.1
				c-1.8-1.1-3.2-2.9-3.7-5c0-0.2-0.1-0.4-0.1-0.6c-0.5,0.1-1.1,0.2-1.6,0.2c-2.8,0-5.4-1.6-6.8-4.1c-1.1-1.9-1.3-4.1-0.8-6.2
				c0.1-0.2,0.1-0.4,0.2-0.6c-3.1-1.1-5.4-4.1-5.4-7.7C635.5,4.4,636.4,2,637.8,1.3z M685.8,14.7c1.7-0.1,3.2-1.1,4.1-2.6
				c1.3-2.4,0.7-5.7-1.2-7.4c-0.8,0.3-1.7,0.1-2.6,0.1l0,0c-1.3,0-2.5,0.1-3.6-0.5c-0.7,0.5-1.3,1.2-1.7,2c-0.7,1.3-0.9,2.9-0.5,4.3
				c0.1,0.1,0.1,0.2,0.1,0.3C682.6,11.3,684.7,12.7,685.8,14.7z M677,24.1c0.7,0.3,1.4,0.5,2.2,0.5c0.9,0,1.8-0.2,2.6-0.7
				c2.2-1.3,3.1-4,2.4-6.4c-0.9-0.2-1.9-0.5-2.7-1c-1.2-0.7-2.1-1.6-2.8-2.8c-0.8,0.1-1.5,0.3-2.2,0.7c-1.3,0.7-2.1,1.9-2.5,3.3v0.2
				C675.7,19.3,676.8,21.5,677,24.1z M668.9,29.7c2.6,0,4.7-1.9,5.2-4.3c-0.8-0.7-1.4-1.4-1.9-2.3c-0.7-1.2-1.1-2.5-1.1-3.9
				c-0.7-0.3-1.4-0.5-2.2-0.5c-1.4,0-2.7,0.6-3.7,1.6l-0.1,0.2c0.8,2.2,0.8,4.7-0.4,6.9C665.6,28.8,667.2,29.7,668.9,29.7z
				 M652.6,24.8c0.4,1.4,1.3,2.6,2.5,3.3c0.8,0.4,1.7,0.7,2.6,0.7c1.5,0,2.9-0.7,3.9-1.8c-0.3-0.9-0.5-1.9-0.5-2.9
				c0-1.4,0.4-2.7,1-3.9c-0.5-0.6-1-1.2-1.7-1.6c-0.8-0.4-1.7-0.7-2.6-0.7c-0.6,0-1.1,0.1-1.6,0.3c-0.4,2.3-1.6,4.4-3.7,5.7
				C652.5,24.2,652.6,24.5,652.6,24.8z M643.8,19.8c1,1.6,2.7,2.7,4.6,2.7c0.6,0,1.1-0.1,1.6-0.3c0.2-1,0.5-1.9,1-2.8
				c0.6-1.2,1.6-2.2,2.7-2.9c-0.1-0.8-0.3-1.6-0.7-2.3c-0.7-1.3-2-2.3-3.4-2.6c-1.5,1.8-3.6,2.9-6,3c-0.1,0.3-0.2,0.6-0.3,0.9
				C642.9,16.9,643.1,18.4,643.8,19.8z M642.2,11.7c0.6-0.7,1.3-1.4,2.2-1.9c1.2-0.7,2.5-1.1,3.8-1.1c0.3-0.7,0.5-1.5,0.5-2.3
				c0-1.6-0.6-3-1.7-4c-0.9,0.4-1.8,0.6-2.8,0.6c-1.3,0-2.6-0.3-3.8-1c-1.4,1-2.3,2.6-2.3,4.5C638.1,9.1,639.9,11.2,642.2,11.7z"/>
		</g>
		<g>
			<path class="st0" d="M601.3,1.2h-2.7c-0.1,0-0.1,0.7-0.1,1.2c0,4.7,3.7,8.5,8.3,8.5s8.3-3.8,8.3-8.6c0-0.4,0-1.2-0.1-1.2h-2.7
				c0.1,0,0.2,0.7,0.2,1.2c0,3.2-2.5,5.8-5.7,5.8c-3.1,0-5.7-2.6-5.7-5.9c0-0.5,0.1-1.2,0.2-1.2V1.2z"/>
			<path class="st0" d="M579.9,1.3h13.3c-0.1,0-0.1,0.7-0.1,1.2c0,7.8,6.1,14.1,13.7,14.1c7.5,0,13.7-6.4,13.7-14.2
				c0-0.4-0.1-1.2-0.1-1.2h3.3c0.3,0,0.6,0.6,0.9,0.9c0.9-0.4,1.8-0.7,2.8-0.7c1.3,0,2.6,0.5,3.7,1.1c0.6-0.4,1-1.3,1.4-1.3h2.9
				c-0.5,0.9-1.2,2.1-2.2,2.9c2.2,2.5,2.8,6.3,1,9.5c-1.2,2-3.2,3.5-5.4,3.9c0.7,3.4-0.8,7-3.8,8.8c-1.2,0.7-2.5,1.1-3.9,1.1
				c-0.9,0-1.8-0.2-2.6-0.5c-1,3.2-4,5.6-7.5,5.6c-2.4,0-4.5-1.1-6-2.9c-1.5,1.3-3.3,2.1-5.3,2.1c-1.3,0-2.7-0.4-3.9-1.1
				c-1.8-1.1-3.2-2.9-3.7-5c0-0.2-0.1-0.4-0.1-0.6c-0.5,0.1-1.1,0.2-1.6,0.2c-2.8,0-5.4-1.6-6.8-4.1c-1.1-1.9-1.3-4.1-0.8-6.2
				c0.1-0.2,0.1-0.4,0.2-0.6c-3.1-1.1-5.4-4.1-5.4-7.7C577.6,4.4,578.5,2,579.9,1.3z M627.9,14.7c1.7-0.1,3.2-1.1,4.1-2.6
				c1.3-2.4,0.7-5.7-1.2-7.4c-0.8,0.3-1.7,0.1-2.6,0.1l0,0c-1.3,0-2.5,0.1-3.6-0.5c-0.7,0.5-1.3,1.2-1.7,2c-0.7,1.3-0.9,2.9-0.5,4.3
				c0.1,0.1,0.1,0.2,0.1,0.3C624.7,11.3,626.8,12.7,627.9,14.7z M619.1,24.1c0.7,0.3,1.4,0.5,2.2,0.5c0.9,0,1.8-0.2,2.6-0.7
				c2.2-1.3,3.1-4,2.4-6.4c-0.9-0.2-1.9-0.5-2.7-1c-1.2-0.7-2.1-1.6-2.8-2.8c-0.8,0.1-1.5,0.3-2.2,0.7c-1.3,0.7-2.1,1.9-2.5,3.3v0.2
				C617.8,19.3,618.9,21.5,619.1,24.1z M611,29.7c2.6,0,4.7-1.9,5.2-4.3c-0.8-0.7-1.4-1.4-1.9-2.3c-0.7-1.2-1.1-2.5-1.1-3.9
				c-0.7-0.3-1.4-0.5-2.2-0.5c-1.4,0-2.7,0.6-3.7,1.6l-0.1,0.2c0.8,2.2,0.8,4.7-0.4,6.9C607.7,28.8,609.3,29.7,611,29.7z
				 M594.7,24.8c0.4,1.4,1.3,2.6,2.5,3.3c0.8,0.4,1.7,0.7,2.6,0.7c1.5,0,2.9-0.7,3.9-1.8c-0.3-0.9-0.5-1.9-0.5-2.9
				c0-1.4,0.4-2.7,1-3.9c-0.5-0.6-1-1.2-1.7-1.6c-0.8-0.4-1.7-0.7-2.6-0.7c-0.6,0-1.1,0.1-1.6,0.3c-0.4,2.3-1.6,4.4-3.7,5.7
				C594.6,24.2,594.7,24.5,594.7,24.8z M585.9,19.8c1,1.6,2.7,2.7,4.6,2.7c0.6,0,1.1-0.1,1.6-0.3c0.2-1,0.5-1.9,1-2.8
				c0.6-1.2,1.6-2.2,2.7-2.9c-0.1-0.8-0.3-1.6-0.7-2.3c-0.7-1.3-2-2.3-3.4-2.6c-1.5,1.8-3.6,2.9-6,3c-0.1,0.3-0.2,0.6-0.3,0.9
				C585,16.9,585.2,18.4,585.9,19.8z M584.3,11.7c0.6-0.7,1.3-1.4,2.2-1.9c1.2-0.7,2.5-1.1,3.8-1.1c0.3-0.7,0.5-1.5,0.5-2.3
				c0-1.6-0.7-3-1.7-4c-0.9,0.4-1.8,0.6-2.8,0.6c-1.3,0-2.6-0.3-3.8-1c-1.4,1-2.3,2.6-2.3,4.5C580.2,9.1,582,11.2,584.3,11.7z"/>
		</g>
		<g>
			<path class="st0" d="M543.4,1.2h-2.7c-0.1,0-0.1,0.7-0.1,1.2c0,4.7,3.7,8.5,8.3,8.5s8.3-3.8,8.3-8.6c0-0.4,0-1.2-0.1-1.2h-2.7
				c0.1,0,0.2,0.7,0.2,1.2c0,3.2-2.5,5.8-5.7,5.8c-3.1,0-5.7-2.6-5.7-5.9c0-0.5,0.1-1.2,0.2-1.2V1.2z"/>
			<path class="st0" d="M522,1.3h13.3c-0.1,0-0.1,0.7-0.1,1.2c0,7.8,6.1,14.1,13.7,14.1c7.5,0,13.7-6.4,13.7-14.2
				c0-0.4-0.1-1.2-0.1-1.2h3.3c0.3,0,0.6,0.6,0.9,0.9c0.9-0.4,1.8-0.7,2.8-0.7c1.3,0,2.6,0.5,3.7,1.1c0.6-0.4,1-1.3,1.4-1.3h2.9
				c-0.5,0.9-1.2,2.1-2.2,2.9c2.2,2.5,2.8,6.3,1,9.5c-1.2,2-3.2,3.5-5.4,3.9c0.7,3.4-0.8,7-3.8,8.8c-1.2,0.7-2.5,1.1-3.9,1.1
				c-0.9,0-1.8-0.2-2.6-0.5c-1,3.2-4,5.6-7.5,5.6c-2.4,0-4.5-1.1-6-2.9c-1.5,1.3-3.3,2.1-5.3,2.1c-1.3,0-2.7-0.4-3.9-1.1
				c-1.8-1.1-3.2-2.9-3.7-5c0-0.2-0.1-0.4-0.1-0.6c-0.5,0.1-1.1,0.2-1.6,0.2c-2.8,0-5.4-1.6-6.8-4.1c-1.1-1.9-1.3-4.1-0.8-6.2
				c0.1-0.2,0.1-0.4,0.2-0.6c-3.1-1.1-5.4-4.1-5.4-7.7C519.7,4.4,520.6,2,522,1.3z M570,14.7c1.7-0.1,3.2-1.1,4.1-2.6
				c1.3-2.4,0.7-5.7-1.2-7.4c-0.8,0.3-1.7,0.1-2.6,0.1l0,0c-1.3,0-2.5,0.1-3.6-0.5c-0.7,0.5-1.3,1.2-1.7,2c-0.7,1.3-0.9,2.9-0.5,4.3
				c0.1,0.1,0.1,0.2,0.1,0.3C566.8,11.3,568.9,12.7,570,14.7z M561.2,24.1c0.7,0.3,1.4,0.5,2.2,0.5c0.9,0,1.8-0.2,2.6-0.7
				c2.2-1.3,3.1-4,2.4-6.4c-0.9-0.2-1.9-0.5-2.7-1c-1.2-0.7-2.1-1.6-2.8-2.8c-0.8,0.1-1.5,0.3-2.2,0.7c-1.3,0.7-2.1,1.9-2.5,3.3v0.2
				C559.9,19.3,561,21.5,561.2,24.1z M553.1,29.7c2.6,0,4.7-1.9,5.2-4.3c-0.8-0.7-1.4-1.4-1.9-2.3c-0.7-1.2-1.1-2.5-1.1-3.9
				c-0.7-0.3-1.4-0.5-2.2-0.5c-1.4,0-2.7,0.6-3.7,1.6l-0.1,0.2c0.8,2.2,0.8,4.7-0.4,6.9C549.8,28.8,551.4,29.7,553.1,29.7z
				 M536.8,24.8c0.4,1.4,1.3,2.6,2.5,3.3c0.8,0.4,1.7,0.7,2.6,0.7c1.5,0,2.9-0.7,3.9-1.8c-0.3-0.9-0.5-1.9-0.5-2.9
				c0-1.4,0.4-2.7,1-3.9c-0.5-0.6-1-1.2-1.7-1.6c-0.8-0.4-1.7-0.7-2.6-0.7c-0.6,0-1.1,0.1-1.6,0.3c-0.4,2.3-1.6,4.4-3.7,5.7
				C536.7,24.2,536.8,24.5,536.8,24.8z M528,19.8c1,1.6,2.7,2.7,4.6,2.7c0.6,0,1.1-0.1,1.6-0.3c0.2-1,0.5-1.9,1-2.8
				c0.6-1.2,1.6-2.2,2.7-2.9c-0.1-0.8-0.3-1.6-0.7-2.3c-0.7-1.3-2-2.3-3.4-2.6c-1.5,1.8-3.6,2.9-6,3c-0.1,0.3-0.2,0.6-0.3,0.9
				C527.1,16.9,527.3,18.4,528,19.8z M526.4,11.7c0.6-0.7,1.3-1.4,2.2-1.9c1.2-0.7,2.5-1.1,3.8-1.1c0.3-0.7,0.5-1.5,0.5-2.3
				c0-1.6-0.6-3-1.7-4c-0.9,0.4-1.8,0.6-2.8,0.6c-1.3,0-2.6-0.3-3.8-1c-1.4,1-2.3,2.6-2.3,4.5C522.3,9.1,524.1,11.2,526.4,11.7z"/>
		</g>
		<g>
			<path class="st0" d="M485.5,1.2h-2.7c-0.1,0-0.1,0.7-0.1,1.2c0,4.7,3.7,8.5,8.3,8.5c4.6,0,8.3-3.8,8.3-8.6c0-0.4,0-1.2-0.1-1.2
				h-2.7c0.1,0,0.2,0.7,0.2,1.2c0,3.2-2.5,5.8-5.7,5.8c-3.1,0-5.7-2.6-5.7-5.9c0-0.5,0.1-1.2,0.2-1.2V1.2z"/>
			<path class="st0" d="M464.1,1.3h13.3c-0.1,0-0.1,0.7-0.1,1.2c0,7.8,6.2,14.1,13.7,14.1s13.7-6.4,13.7-14.2c0-0.4-0.1-1.2-0.1-1.2
				h3.3c0.3,0,0.6,0.6,0.9,0.9c0.9-0.4,1.8-0.7,2.8-0.7c1.3,0,2.6,0.5,3.7,1.1c0.6-0.4,1-1.3,1.4-1.3h2.9c-0.5,0.9-1.2,2.1-2.2,2.9
				c2.2,2.5,2.8,6.3,1,9.5c-1.2,2-3.2,3.5-5.4,3.9c0.7,3.4-0.8,7-3.8,8.8c-1.2,0.7-2.5,1.1-3.9,1.1c-0.9,0-1.8-0.2-2.6-0.5
				c-1,3.2-4,5.6-7.5,5.6c-2.4,0-4.5-1.1-6-2.9c-1.5,1.3-3.3,2.1-5.3,2.1c-1.3,0-2.7-0.4-3.9-1.1c-1.8-1.1-3.2-2.9-3.7-5
				c0-0.2-0.1-0.4-0.1-0.6c-0.5,0.1-1.1,0.2-1.6,0.2c-2.8,0-5.4-1.6-6.8-4.1c-1.1-1.9-1.3-4.1-0.8-6.2c0.1-0.2,0.1-0.4,0.2-0.6
				c-3.1-1.1-5.4-4.1-5.4-7.7C461.8,4.4,462.7,2,464.1,1.3z M512.1,14.7c1.7-0.1,3.2-1.1,4.1-2.6c1.3-2.4,0.7-5.7-1.2-7.4
				c-0.8,0.3-1.7,0.1-2.6,0.1l0,0c-1.3,0-2.5,0.1-3.6-0.5c-0.7,0.5-1.3,1.2-1.7,2c-0.7,1.3-0.9,2.9-0.5,4.3c0.1,0.1,0.1,0.2,0.1,0.3
				C508.9,11.3,511,12.7,512.1,14.7z M503.3,24.1c0.7,0.3,1.4,0.5,2.2,0.5c0.9,0,1.8-0.2,2.6-0.7c2.2-1.3,3.1-4,2.4-6.4
				c-0.9-0.2-1.9-0.5-2.7-1c-1.2-0.7-2.1-1.6-2.8-2.8c-0.8,0.1-1.5,0.3-2.2,0.7c-1.3,0.7-2.1,1.9-2.5,3.3v0.2
				C502,19.3,503.1,21.5,503.3,24.1z M495.2,29.7c2.6,0,4.7-1.9,5.2-4.3c-0.8-0.7-1.4-1.4-1.9-2.3c-0.7-1.2-1.1-2.5-1.1-3.9
				c-0.7-0.3-1.4-0.5-2.2-0.5c-1.4,0-2.7,0.6-3.7,1.6l-0.1,0.2c0.8,2.2,0.8,4.7-0.4,6.9C491.9,28.8,493.5,29.7,495.2,29.7z
				 M478.9,24.8c0.4,1.4,1.3,2.6,2.5,3.3c0.8,0.4,1.7,0.7,2.6,0.7c1.5,0,2.9-0.7,3.9-1.8c-0.3-0.9-0.5-1.9-0.5-2.9
				c0-1.4,0.4-2.7,1-3.9c-0.5-0.6-1-1.2-1.7-1.6c-0.8-0.4-1.7-0.7-2.6-0.7c-0.6,0-1.1,0.1-1.6,0.3c-0.4,2.3-1.6,4.4-3.7,5.7
				C478.8,24.2,478.9,24.5,478.9,24.8z M470.1,19.8c1,1.6,2.7,2.7,4.6,2.7c0.6,0,1.1-0.1,1.6-0.3c0.2-1,0.5-1.9,1-2.8
				c0.6-1.2,1.6-2.2,2.7-2.9c-0.1-0.8-0.3-1.6-0.7-2.3c-0.7-1.3-2-2.3-3.4-2.6c-1.5,1.8-3.6,2.9-6,3c-0.1,0.3-0.2,0.6-0.3,0.9
				C469.2,16.9,469.4,18.4,470.1,19.8z M468.5,11.7c0.6-0.7,1.3-1.4,2.2-1.9c1.2-0.7,2.5-1.1,3.8-1.1c0.3-0.7,0.5-1.5,0.5-2.3
				c0-1.6-0.6-3-1.7-4c-0.9,0.4-1.8,0.6-2.8,0.6c-1.3,0-2.6-0.3-3.8-1c-1.4,1-2.3,2.6-2.3,4.5C464.4,9.1,466.2,11.2,468.5,11.7z"/>
		</g>
		<g>
			<path class="st0" d="M427.6,1.2h-2.7c-0.1,0-0.1,0.7-0.1,1.2c0,4.7,3.7,8.5,8.3,8.5c4.6,0,8.3-3.8,8.3-8.6c0-0.4,0-1.2-0.1-1.2
				h-2.7c0.1,0,0.2,0.7,0.2,1.2c0,3.2-2.5,5.8-5.7,5.8c-3.1,0-5.7-2.6-5.7-5.9c0-0.5,0.1-1.2,0.2-1.2V1.2z"/>
			<path class="st0" d="M406.2,1.3h13.3c-0.1,0-0.1,0.7-0.1,1.2c0,7.8,6.2,14.1,13.7,14.1s13.7-6.4,13.7-14.2c0-0.4-0.1-1.2-0.1-1.2
				h3.3c0.3,0,0.6,0.6,0.9,0.9c0.9-0.4,1.8-0.7,2.8-0.7c1.3,0,2.6,0.5,3.7,1.1c0.6-0.4,1-1.3,1.4-1.3h2.9c-0.5,0.9-1.2,2.1-2.2,2.9
				c2.2,2.5,2.8,6.3,1,9.5c-1.2,2-3.2,3.5-5.4,3.9c0.7,3.4-0.8,7-3.8,8.8c-1.2,0.7-2.5,1.1-3.9,1.1c-0.9,0-1.8-0.2-2.6-0.5
				c-1,3.2-4,5.6-7.5,5.6c-2.4,0-4.5-1.1-6-2.9c-1.5,1.3-3.3,2.1-5.3,2.1c-1.3,0-2.7-0.4-3.9-1.1c-1.8-1.1-3.2-2.9-3.7-5
				c0-0.2-0.1-0.4-0.1-0.6c-0.5,0.1-1.1,0.2-1.6,0.2c-2.8,0-5.4-1.6-6.8-4.1c-1.1-1.9-1.3-4.1-0.8-6.2c0.1-0.2,0.1-0.4,0.2-0.6
				c-3.1-1.1-5.4-4.1-5.4-7.7C403.9,4.4,404.8,2,406.2,1.3z M454.2,14.7c1.7-0.1,3.2-1.1,4.1-2.6c1.3-2.4,0.7-5.7-1.2-7.4
				c-0.8,0.3-1.7,0.1-2.6,0.1l0,0c-1.3,0-2.5,0.1-3.6-0.5c-0.7,0.5-1.3,1.2-1.7,2c-0.7,1.3-0.9,2.9-0.5,4.3c0.1,0.1,0.1,0.2,0.1,0.3
				C451,11.3,453.1,12.7,454.2,14.7z M445.4,24.1c0.7,0.3,1.4,0.5,2.2,0.5c0.9,0,1.8-0.2,2.6-0.7c2.2-1.3,3.1-4,2.4-6.4
				c-0.9-0.2-1.9-0.5-2.7-1c-1.2-0.7-2.1-1.6-2.8-2.8c-0.8,0.1-1.5,0.3-2.2,0.7c-1.3,0.7-2.1,1.9-2.5,3.3v0.2
				C444.1,19.3,445.2,21.5,445.4,24.1z M437.3,29.7c2.6,0,4.7-1.9,5.2-4.3c-0.8-0.7-1.4-1.4-1.9-2.3c-0.7-1.2-1.1-2.5-1.1-3.9
				c-0.7-0.3-1.4-0.5-2.2-0.5c-1.4,0-2.7,0.6-3.7,1.6l-0.1,0.2c0.8,2.2,0.8,4.7-0.4,6.9C434,28.8,435.6,29.7,437.3,29.7z M421,24.8
				c0.4,1.4,1.3,2.6,2.5,3.3c0.8,0.4,1.7,0.7,2.6,0.7c1.5,0,2.9-0.7,3.9-1.8c-0.3-0.9-0.5-1.9-0.5-2.9c0-1.4,0.4-2.7,1-3.9
				c-0.5-0.6-1-1.2-1.7-1.6c-0.8-0.4-1.7-0.7-2.6-0.7c-0.6,0-1.1,0.1-1.6,0.3c-0.4,2.3-1.6,4.4-3.7,5.7
				C420.9,24.2,421,24.5,421,24.8z M412.2,19.8c1,1.6,2.7,2.7,4.6,2.7c0.6,0,1.1-0.1,1.6-0.3c0.2-1,0.5-1.9,1-2.8
				c0.6-1.2,1.6-2.2,2.7-2.9c-0.1-0.8-0.3-1.6-0.7-2.3c-0.7-1.3-2-2.3-3.4-2.6c-1.5,1.8-3.6,2.9-6,3c-0.1,0.3-0.2,0.6-0.3,0.9
				C411.3,16.9,411.5,18.4,412.2,19.8z M410.6,11.7c0.6-0.7,1.3-1.4,2.2-1.9c1.2-0.7,2.5-1.1,3.8-1.1c0.3-0.7,0.5-1.5,0.5-2.3
				c0-1.6-0.6-3-1.7-4c-0.9,0.4-1.8,0.6-2.8,0.6c-1.3,0-2.6-0.3-3.8-1c-1.4,1-2.3,2.6-2.3,4.5C406.5,9.1,408.3,11.2,410.6,11.7z"/>
		</g>
		<g>
			<path class="st0" d="M369.7,1.2H367c-0.1,0-0.1,0.7-0.1,1.2c0,4.7,3.7,8.5,8.3,8.5c4.6,0,8.3-3.8,8.3-8.6c0-0.4,0-1.2-0.1-1.2
				h-2.7c0.1,0,0.2,0.7,0.2,1.2c0,3.2-2.5,5.8-5.7,5.8c-3.1,0-5.7-2.6-5.7-5.9c0-0.5,0.1-1.2,0.2-1.2V1.2z"/>
			<path class="st0" d="M348.3,1.3h13.3c-0.1,0-0.1,0.7-0.1,1.2c0,7.8,6.1,14.1,13.7,14.1c7.5,0,13.7-6.4,13.7-14.2
				c0-0.4-0.1-1.2-0.1-1.2h3.3c0.3,0,0.6,0.6,0.9,0.9c0.9-0.4,1.8-0.7,2.8-0.7c1.3,0,2.6,0.5,3.7,1.1c0.6-0.4,1-1.3,1.4-1.3h2.9
				c-0.5,0.9-1.2,2.1-2.2,2.9c2.2,2.5,2.8,6.3,1,9.5c-1.2,2-3.2,3.5-5.4,3.9c0.7,3.4-0.8,7-3.8,8.8c-1.2,0.7-2.5,1.1-3.9,1.1
				c-0.9,0-1.8-0.2-2.6-0.5c-1,3.2-4,5.6-7.5,5.6c-2.4,0-4.5-1.1-6-2.9c-1.5,1.3-3.3,2.1-5.3,2.1c-1.3,0-2.7-0.4-3.9-1.1
				c-1.8-1.1-3.2-2.9-3.7-5c0-0.2-0.1-0.4-0.1-0.6c-0.5,0.1-1.1,0.2-1.6,0.2c-2.8,0-5.4-1.6-6.8-4.1c-1.1-1.9-1.3-4.1-0.8-6.2
				c0.1-0.2,0.1-0.4,0.2-0.6c-3.1-1.1-5.4-4.1-5.4-7.7C346,4.4,346.9,2,348.3,1.3z M396.3,14.7c1.7-0.1,3.2-1.1,4.1-2.6
				c1.3-2.4,0.7-5.7-1.2-7.4c-0.8,0.3-1.7,0.1-2.6,0.1l0,0c-1.3,0-2.5,0.1-3.6-0.5c-0.7,0.5-1.3,1.2-1.7,2c-0.7,1.3-0.9,2.9-0.5,4.3
				c0.1,0.1,0.1,0.2,0.1,0.3C393.1,11.3,395.2,12.7,396.3,14.7z M387.5,24.1c0.7,0.3,1.4,0.5,2.2,0.5c0.9,0,1.8-0.2,2.6-0.7
				c2.2-1.3,3.1-4,2.4-6.4c-0.9-0.2-1.9-0.5-2.7-1c-1.2-0.7-2.1-1.6-2.8-2.8c-0.8,0.1-1.5,0.3-2.2,0.7c-1.3,0.7-2.1,1.9-2.5,3.3v0.2
				C386.2,19.3,387.3,21.5,387.5,24.1z M379.4,29.7c2.6,0,4.7-1.9,5.2-4.3c-0.8-0.7-1.4-1.4-1.9-2.3c-0.7-1.2-1.1-2.5-1.1-3.9
				c-0.7-0.3-1.4-0.5-2.2-0.5c-1.4,0-2.7,0.6-3.7,1.6l-0.1,0.2c0.8,2.2,0.8,4.7-0.4,6.9C376.1,28.8,377.7,29.7,379.4,29.7z
				 M363.1,24.8c0.4,1.4,1.3,2.6,2.5,3.3c0.8,0.4,1.7,0.7,2.6,0.7c1.5,0,2.9-0.7,3.9-1.8c-0.3-0.9-0.5-1.9-0.5-2.9
				c0-1.4,0.4-2.7,1-3.9c-0.5-0.6-1-1.2-1.7-1.6c-0.8-0.4-1.7-0.7-2.6-0.7c-0.6,0-1.1,0.1-1.6,0.3c-0.4,2.3-1.6,4.4-3.7,5.7
				C363,24.2,363.1,24.5,363.1,24.8z M354.3,19.8c1,1.6,2.7,2.7,4.6,2.7c0.6,0,1.1-0.1,1.6-0.3c0.2-1,0.5-1.9,1-2.8
				c0.6-1.2,1.6-2.2,2.7-2.9c-0.1-0.8-0.3-1.6-0.7-2.3c-0.7-1.3-2-2.3-3.4-2.6c-1.5,1.8-3.6,2.9-6,3c-0.1,0.3-0.2,0.6-0.3,0.9
				C353.4,16.9,353.6,18.4,354.3,19.8z M352.7,11.7c0.6-0.7,1.3-1.4,2.2-1.9c1.2-0.7,2.5-1.1,3.8-1.1c0.3-0.7,0.5-1.5,0.5-2.3
				c0-1.6-0.7-3-1.7-4c-0.9,0.4-1.8,0.6-2.8,0.6c-1.3,0-2.6-0.3-3.8-1c-1.4,1-2.3,2.6-2.3,4.5C348.6,9.1,350.4,11.2,352.7,11.7z"/>
		</g>
		<g>
			<path class="st0" d="M311.8,1.2h-2.7c-0.1,0-0.1,0.7-0.1,1.2c0,4.7,3.7,8.5,8.3,8.5c4.6,0,8.3-3.8,8.3-8.6c0-0.4,0-1.2-0.1-1.2
				h-2.7c0.1,0,0.2,0.7,0.2,1.2c0,3.2-2.5,5.8-5.7,5.8c-3.1,0-5.7-2.6-5.7-5.9c0-0.5,0.1-1.2,0.2-1.2V1.2z"/>
			<path class="st0" d="M290.4,1.3h13.3c-0.1,0-0.1,0.7-0.1,1.2c0,7.8,6.1,14.1,13.7,14.1c7.5,0,13.7-6.4,13.7-14.2
				c0-0.4-0.1-1.2-0.1-1.2h3.3c0.3,0,0.6,0.6,0.9,0.9c0.9-0.4,1.8-0.7,2.8-0.7c1.3,0,2.6,0.5,3.7,1.1c0.6-0.4,1-1.3,1.4-1.3h2.9
				c-0.5,0.9-1.2,2.1-2.2,2.9c2.2,2.5,2.8,6.3,1,9.5c-1.2,2-3.2,3.5-5.4,3.9c0.7,3.4-0.8,7-3.8,8.8c-1.2,0.7-2.5,1.1-3.9,1.1
				c-0.9,0-1.8-0.2-2.6-0.5c-1,3.2-4,5.6-7.5,5.6c-2.4,0-4.5-1.1-6-2.9c-1.5,1.3-3.3,2.1-5.3,2.1c-1.3,0-2.7-0.4-3.9-1.1
				c-1.8-1.1-3.2-2.9-3.7-5c0-0.2-0.1-0.4-0.1-0.6c-0.5,0.1-1.1,0.2-1.6,0.2c-2.8,0-5.4-1.6-6.8-4.1c-1.1-1.9-1.3-4.1-0.8-6.2
				c0.1-0.2,0.1-0.4,0.2-0.6c-3.1-1.1-5.4-4.1-5.4-7.7C288.1,4.4,289,2,290.4,1.3z M338.4,14.7c1.7-0.1,3.2-1.1,4.1-2.6
				c1.3-2.4,0.7-5.7-1.2-7.4c-0.8,0.3-1.7,0.1-2.6,0.1l0,0c-1.3,0-2.5,0.1-3.6-0.5c-0.7,0.5-1.3,1.2-1.7,2c-0.7,1.3-0.9,2.9-0.5,4.3
				c0.1,0.1,0.1,0.2,0.1,0.3C335.2,11.3,337.3,12.7,338.4,14.7z M329.6,24.1c0.7,0.3,1.4,0.5,2.2,0.5c0.9,0,1.8-0.2,2.6-0.7
				c2.2-1.3,3.1-4,2.4-6.4c-0.9-0.2-1.9-0.5-2.7-1c-1.2-0.7-2.1-1.6-2.8-2.8c-0.8,0.1-1.5,0.3-2.2,0.7c-1.3,0.7-2.1,1.9-2.5,3.3v0.2
				C328.3,19.3,329.4,21.5,329.6,24.1z M321.5,29.7c2.6,0,4.7-1.9,5.2-4.3c-0.8-0.7-1.4-1.4-1.9-2.3c-0.7-1.2-1.1-2.5-1.1-3.9
				c-0.7-0.3-1.4-0.5-2.2-0.5c-1.4,0-2.7,0.6-3.7,1.6l-0.1,0.2c0.8,2.2,0.8,4.7-0.4,6.9C318.2,28.8,319.8,29.7,321.5,29.7z
				 M305.2,24.8c0.4,1.4,1.3,2.6,2.5,3.3c0.8,0.4,1.7,0.7,2.6,0.7c1.5,0,2.9-0.7,3.9-1.8c-0.3-0.9-0.5-1.9-0.5-2.9
				c0-1.4,0.4-2.7,1-3.9c-0.5-0.6-1-1.2-1.7-1.6c-0.8-0.4-1.7-0.7-2.6-0.7c-0.6,0-1.1,0.1-1.6,0.3c-0.4,2.3-1.6,4.4-3.7,5.7
				C305.1,24.2,305.2,24.5,305.2,24.8z M296.4,19.8c1,1.6,2.7,2.7,4.6,2.7c0.6,0,1.1-0.1,1.6-0.3c0.2-1,0.5-1.9,1-2.8
				c0.6-1.2,1.6-2.2,2.7-2.9c-0.1-0.8-0.3-1.6-0.7-2.3c-0.7-1.3-2-2.3-3.4-2.6c-1.5,1.8-3.6,2.9-6,3c-0.1,0.3-0.2,0.6-0.3,0.9
				C295.5,16.9,295.7,18.4,296.4,19.8z M294.8,11.7c0.6-0.7,1.3-1.4,2.2-1.9c1.2-0.7,2.5-1.1,3.8-1.1c0.3-0.7,0.5-1.5,0.5-2.3
				c0-1.6-0.6-3-1.7-4c-0.9,0.4-1.8,0.6-2.8,0.6c-1.3,0-2.6-0.3-3.8-1c-1.4,1-2.3,2.6-2.3,4.5C290.7,9.1,292.5,11.2,294.8,11.7z"/>
		</g>
		<g>
			<path class="st0" d="M253.9,1.2h-2.7c-0.1,0-0.1,0.7-0.1,1.2c0,4.7,3.7,8.5,8.3,8.5c4.6,0,8.3-3.8,8.3-8.6c0-0.4,0-1.2-0.1-1.2
				h-2.7c0.1,0,0.2,0.7,0.2,1.2c0,3.2-2.5,5.8-5.7,5.8c-3.1,0-5.7-2.6-5.7-5.9c0-0.5,0.1-1.2,0.2-1.2V1.2z"/>
			<path class="st0" d="M232.7,1.3H246c-0.1,0-0.1,0.7-0.1,1.2c0,7.8,6.1,14.1,13.7,14.1c7.5,0,13.7-6.4,13.7-14.2
				c0-0.4-0.1-1.2-0.1-1.2h3.2c0.3,0,0.6,0.6,0.9,0.9c0.9-0.4,1.8-0.7,2.8-0.7c1.3,0,2.6,0.5,3.7,1.1c0.6-0.4,1-1.3,1.4-1.3h2.8
				c-0.5,0.9-1.2,2.1-2.2,2.9c2.2,2.5,2.8,6.3,1,9.5c-1.2,2-3.2,3.5-5.4,3.9c0.7,3.4-0.8,7-3.8,8.8c-1.2,0.7-2.5,1.1-3.9,1.1
				c-0.9,0-1.8-0.2-2.6-0.5c-1,3.2-4,5.6-7.5,5.6c-2.4,0-4.5-1.1-6-2.9c-1.5,1.3-3.3,2.1-5.3,2.1c-1.3,0-2.7-0.4-3.9-1.1
				c-1.8-1.1-3.2-2.9-3.7-5c0-0.2-0.1-0.4-0.1-0.6c-0.5,0.1-1.1,0.2-1.6,0.2c-2.8,0-5.4-1.6-6.8-4.1c-1.1-1.9-1.3-4.1-0.8-6.2
				c0.1-0.2,0.1-0.4,0.2-0.6c-3.1-1.1-5.4-4.1-5.4-7.7C230.2,4.4,231.1,2,232.7,1.3z M280.5,14.7c1.7-0.1,3.2-1.1,4.1-2.6
				c1.3-2.4,0.7-5.7-1.2-7.4c-0.8,0.3-1.7,0.1-2.6,0.1l0,0c-1.3,0-2.5,0.1-3.6-0.5c-0.7,0.5-1.3,1.2-1.7,2c-0.7,1.3-0.9,2.9-0.5,4.3
				c0.1,0.1,0.1,0.2,0.1,0.3C277.3,11.3,279.4,12.7,280.5,14.7z M271.7,24.1c0.7,0.3,1.4,0.5,2.2,0.5c0.9,0,1.8-0.2,2.6-0.7
				c2.2-1.3,3.1-4,2.4-6.4c-0.9-0.2-1.9-0.5-2.7-1c-1.2-0.7-2.1-1.6-2.8-2.8c-0.8,0.1-1.5,0.3-2.2,0.7c-1.3,0.7-2.1,1.9-2.5,3.3v0.2
				C270.4,19.3,271.5,21.5,271.7,24.1z M263.6,29.7c2.6,0,4.7-1.9,5.2-4.3c-0.8-0.7-1.4-1.4-1.9-2.3c-0.7-1.2-1.1-2.5-1.1-3.9
				c-0.7-0.3-1.4-0.5-2.2-0.5c-1.4,0-2.7,0.6-3.7,1.6l-0.1,0.2c0.8,2.2,0.8,4.7-0.4,6.9C260.3,28.8,261.9,29.7,263.6,29.7z
				 M247.3,24.8c0.4,1.4,1.3,2.6,2.5,3.3c0.8,0.4,1.7,0.7,2.6,0.7c1.5,0,2.9-0.7,3.9-1.8c-0.3-0.9-0.5-1.9-0.5-2.9
				c0-1.4,0.4-2.7,1-3.9c-0.5-0.6-1-1.2-1.7-1.6c-0.8-0.4-1.7-0.7-2.6-0.7c-0.6,0-1.1,0.1-1.6,0.3c-0.4,2.3-1.6,4.4-3.7,5.7
				C247.2,24.2,247.3,24.5,247.3,24.8z M238.5,19.8c1,1.6,2.7,2.7,4.6,2.7c0.6,0,1.1-0.1,1.6-0.3c0.2-1,0.5-1.9,1-2.8
				c0.6-1.2,1.6-2.2,2.7-2.9c-0.1-0.8-0.3-1.6-0.7-2.3c-0.7-1.3-2-2.3-3.4-2.6c-1.5,1.8-3.6,2.9-6,3c-0.1,0.3-0.2,0.6-0.3,0.9
				C237.6,16.9,237.8,18.4,238.5,19.8z M236.9,11.7c0.6-0.7,1.3-1.4,2.2-1.9c1.2-0.7,2.5-1.1,3.8-1.1c0.3-0.7,0.5-1.5,0.5-2.3
				c0-1.6-0.6-3-1.7-4c-0.9,0.4-1.8,0.6-2.8,0.6c-1.3,0-2.6-0.3-3.8-1c-1.4,1-2.3,2.6-2.3,4.5C232.8,9.1,234.6,11.2,236.9,11.7z"/>
		</g>
		<g>
			<path class="st0" d="M196,1.2h-2.7c-0.1,0-0.1,0.7-0.1,1.2c0,4.7,3.7,8.5,8.3,8.5s8.3-3.8,8.3-8.6c0-0.4,0-1.2-0.1-1.2H207
				c0.1,0,0.2,0.7,0.2,1.2c0,3.2-2.5,5.8-5.7,5.8c-3.1,0-5.7-2.6-5.7-5.9c0-0.5,0.1-1.2,0.2-1.2V1.2z"/>
			<path class="st0" d="M174.6,1.3h13.3c-0.1,0-0.1,0.7-0.1,1.2c0,7.8,6.1,14.1,13.7,14.1c7.5,0,13.7-6.4,13.7-14.2
				c0-0.4-0.1-1.2-0.1-1.2h3.3c0.3,0,0.6,0.6,0.9,0.9c0.9-0.4,1.8-0.7,2.8-0.7c1.3,0,2.6,0.5,3.7,1.1c0.6-0.4,1-1.3,1.4-1.3h2.9
				c-0.5,0.9-1.2,2.1-2.2,2.9c2.2,2.5,2.8,6.3,1,9.5c-1.2,2-3.2,3.5-5.4,3.9c0.7,3.4-0.8,7-3.8,8.8c-1.2,0.7-2.5,1.1-3.9,1.1
				c-0.9,0-1.8-0.2-2.6-0.5c-1,3.2-4,5.6-7.5,5.6c-2.4,0-4.5-1.1-6-2.9c-1.5,1.3-3.3,2.1-5.3,2.1c-1.3,0-2.7-0.4-3.9-1.1
				c-1.8-1.1-3.2-2.9-3.7-5c0-0.2-0.1-0.4-0.1-0.6c-0.5,0.1-1.1,0.2-1.6,0.2c-2.8,0-5.4-1.6-6.8-4.1c-1.1-1.9-1.3-4.1-0.8-6.2
				c0.1-0.2,0.1-0.4,0.2-0.6c-3.1-1.1-5.4-4.1-5.4-7.7C172.3,4.4,173.2,2,174.6,1.3z M222.6,14.7c1.7-0.1,3.2-1.1,4.1-2.6
				c1.3-2.4,0.7-5.7-1.2-7.4c-0.8,0.3-1.7,0.1-2.6,0.1l0,0c-1.3,0-2.5,0.1-3.6-0.5c-0.7,0.5-1.3,1.2-1.7,2c-0.7,1.3-0.9,2.9-0.5,4.3
				c0.1,0.1,0.1,0.2,0.1,0.3C219.4,11.3,221.5,12.7,222.6,14.7z M213.8,24.1c0.7,0.3,1.4,0.5,2.2,0.5c0.9,0,1.8-0.2,2.6-0.7
				c2.2-1.3,3.1-4,2.4-6.4c-0.9-0.2-1.9-0.5-2.7-1c-1.2-0.7-2.1-1.6-2.8-2.8c-0.8,0.1-1.5,0.3-2.2,0.7c-1.3,0.7-2.1,1.9-2.5,3.3v0.2
				C212.5,19.3,213.6,21.5,213.8,24.1z M205.7,29.7c2.6,0,4.7-1.9,5.2-4.3c-0.8-0.7-1.4-1.4-1.9-2.3c-0.7-1.2-1.1-2.5-1.1-3.9
				c-0.7-0.3-1.4-0.5-2.2-0.5c-1.4,0-2.7,0.6-3.7,1.6l-0.1,0.2c0.8,2.2,0.8,4.7-0.4,6.9C202.4,28.8,204,29.7,205.7,29.7z
				 M189.4,24.8c0.4,1.4,1.3,2.6,2.5,3.3c0.8,0.4,1.7,0.7,2.6,0.7c1.5,0,2.9-0.7,3.9-1.8c-0.3-0.9-0.5-1.9-0.5-2.9
				c0-1.4,0.4-2.7,1-3.9c-0.5-0.6-1-1.2-1.7-1.6c-0.8-0.4-1.7-0.7-2.6-0.7c-0.6,0-1.1,0.1-1.6,0.3c-0.4,2.3-1.6,4.4-3.7,5.7
				C189.3,24.2,189.4,24.5,189.4,24.8z M180.6,19.8c1,1.6,2.7,2.7,4.6,2.7c0.6,0,1.1-0.1,1.6-0.3c0.2-1,0.5-1.9,1-2.8
				c0.6-1.2,1.6-2.2,2.7-2.9c-0.1-0.8-0.3-1.6-0.7-2.3c-0.7-1.3-2-2.3-3.4-2.6c-1.5,1.8-3.6,2.9-6,3c-0.1,0.3-0.2,0.6-0.3,0.9
				C179.7,16.9,179.9,18.4,180.6,19.8z M179,11.7c0.6-0.7,1.3-1.4,2.2-1.9c1.2-0.7,2.5-1.1,3.8-1.1c0.3-0.7,0.5-1.5,0.5-2.3
				c0-1.6-0.6-3-1.7-4C182.9,2.8,182,3,181,3c-1.3,0-2.6-0.3-3.8-1c-1.4,1-2.3,2.6-2.3,4.5C174.9,9.1,176.7,11.2,179,11.7z"/>
		</g>
		<g>
			<path class="st0" d="M138.1,1.2h-2.7c-0.1,0-0.1,0.7-0.1,1.2c0,4.7,3.7,8.5,8.3,8.5s8.3-3.8,8.3-8.6c0-0.4,0-1.2-0.1-1.2h-2.7
				c0.1,0,0.2,0.7,0.2,1.2c0,3.2-2.5,5.8-5.7,5.8c-3.1,0-5.7-2.6-5.7-5.9c0-0.5,0.1-1.2,0.2-1.2V1.2z"/>
			<path class="st0" d="M116.7,1.3H130c-0.1,0-0.1,0.7-0.1,1.2c0,7.8,6.1,14.1,13.7,14.1c7.5,0,13.7-6.4,13.7-14.2
				c0-0.4-0.1-1.2-0.1-1.2h3.3c0.3,0,0.6,0.6,0.9,0.9c0.9-0.4,1.8-0.7,2.8-0.7c1.3,0,2.6,0.5,3.7,1.1c0.6-0.4,1-1.3,1.4-1.3h2.9
				c-0.5,0.9-1.2,2.1-2.2,2.9c2.2,2.5,2.8,6.3,1,9.5c-1.2,2-3.2,3.5-5.4,3.9c0.7,3.4-0.8,7-3.8,8.8c-1.2,0.7-2.5,1.1-3.9,1.1
				c-0.9,0-1.8-0.2-2.6-0.5c-1,3.2-4,5.6-7.5,5.6c-2.4,0-4.5-1.1-6-2.9c-1.5,1.3-3.3,2.1-5.3,2.1c-1.3,0-2.7-0.4-3.9-1.1
				c-1.8-1.1-3.2-2.9-3.7-5c0-0.2-0.1-0.4-0.1-0.6c-0.5,0.1-1.1,0.2-1.6,0.2c-2.8,0-5.4-1.6-6.8-4.1c-1.1-1.9-1.3-4.1-0.8-6.2
				c0.1-0.2,0.1-0.4,0.2-0.6c-3.1-1.1-5.4-4.1-5.4-7.7C114.4,4.4,115.3,2,116.7,1.3z M164.7,14.7c1.7-0.1,3.2-1.1,4.1-2.6
				c1.3-2.4,0.7-5.7-1.2-7.4c-0.8,0.3-1.7,0.1-2.6,0.1l0,0c-1.3,0-2.5,0.1-3.6-0.5c-0.7,0.5-1.3,1.2-1.7,2c-0.7,1.3-0.9,2.9-0.5,4.3
				c0.1,0.1,0.1,0.2,0.1,0.3C161.5,11.3,163.6,12.7,164.7,14.7z M155.9,24.1c0.7,0.3,1.4,0.5,2.2,0.5c0.9,0,1.8-0.2,2.6-0.7
				c2.2-1.3,3.1-4,2.4-6.4c-0.9-0.2-1.9-0.5-2.7-1c-1.2-0.7-2.1-1.6-2.8-2.8c-0.8,0.1-1.5,0.3-2.2,0.7c-1.3,0.7-2.1,1.9-2.5,3.3v0.2
				C154.6,19.3,155.7,21.5,155.9,24.1z M147.9,29.7c2.6,0,4.7-1.9,5.2-4.3c-0.8-0.7-1.4-1.4-1.9-2.3c-0.7-1.2-1.1-2.5-1.1-3.9
				c-0.7-0.3-1.4-0.5-2.2-0.5c-1.4,0-2.7,0.6-3.7,1.6l-0.2,0.2c0.8,2.2,0.8,4.7-0.4,6.9C144.5,28.8,146.1,29.7,147.9,29.7z
				 M131.5,24.8c0.4,1.4,1.3,2.6,2.5,3.3c0.8,0.4,1.7,0.7,2.6,0.7c1.5,0,2.9-0.7,3.9-1.8c-0.3-0.9-0.5-1.9-0.5-2.9
				c0-1.4,0.4-2.7,1-3.9c-0.5-0.6-1-1.2-1.7-1.6c-0.8-0.4-1.7-0.7-2.6-0.7c-0.6,0-1.1,0.1-1.6,0.3c-0.4,2.3-1.6,4.4-3.7,5.7
				C131.4,24.2,131.5,24.5,131.5,24.8z M122.7,19.8c1,1.6,2.7,2.7,4.6,2.7c0.6,0,1.1-0.1,1.6-0.3c0.2-1,0.5-1.9,1-2.8
				c0.6-1.2,1.6-2.2,2.7-2.9c-0.1-0.8-0.3-1.6-0.7-2.3c-0.7-1.3-2-2.3-3.4-2.6c-1.5,1.8-3.6,2.9-6,3c-0.1,0.3-0.2,0.6-0.3,0.9
				C121.8,16.9,122,18.4,122.7,19.8z M121.1,11.7c0.6-0.7,1.3-1.4,2.2-1.9c1.2-0.7,2.5-1.1,3.8-1.1c0.3-0.7,0.5-1.5,0.5-2.3
				c0-1.6-0.6-3-1.7-4C125,2.8,124.1,3,123.1,3c-1.3,0-2.6-0.3-3.8-1c-1.4,1-2.3,2.6-2.3,4.5C117,9.1,118.8,11.2,121.1,11.7z"/>
		</g>
		<g>
			<path class="st0" d="M80.2,1.2h-2.7c-0.1,0-0.1,0.7-0.1,1.2c0,4.7,3.7,8.5,8.3,8.5c4.6,0,8.3-3.8,8.3-8.6c0-0.4,0-1.2-0.1-1.2
				h-2.7c0.1,0,0.2,0.7,0.2,1.2c0,3.2-2.5,5.8-5.7,5.8c-3.1,0-5.7-2.6-5.7-5.9C80,1.7,80.1,1,80.2,1V1.2z"/>
			<path class="st0" d="M58.8,1.3h13.3C72,1.3,72,2,72,2.5c0,7.8,6.1,14.1,13.7,14.1c7.5,0,13.7-6.4,13.7-14.2
				c0-0.4-0.1-1.2-0.1-1.2h3.3c0.3,0,0.6,0.6,0.9,0.9c0.9-0.4,1.8-0.7,2.8-0.7c1.3,0,2.6,0.5,3.7,1.1c0.6-0.4,1-1.3,1.4-1.3h2.9
				c-0.5,0.9-1.2,2.1-2.2,2.9c2.2,2.5,2.8,6.3,1,9.5c-1.2,2-3.2,3.5-5.4,3.9c0.7,3.4-0.8,7-3.8,8.8c-1.2,0.7-2.5,1.1-3.9,1.1
				c-0.9,0-1.8-0.2-2.6-0.5c-1,3.2-4,5.6-7.5,5.6c-2.4,0-4.5-1.1-6-2.9c-1.5,1.3-3.3,2.1-5.3,2.1c-1.3,0-2.7-0.4-3.9-1.1
				c-1.8-1.1-3.2-2.9-3.7-5c0-0.2-0.1-0.4-0.1-0.6c-0.5,0.1-1.1,0.2-1.6,0.2c-2.8,0-5.4-1.6-6.8-4.1c-1.1-1.9-1.3-4.1-0.8-6.2
				c0.1-0.2,0.1-0.4,0.2-0.6c-3.1-1.1-5.4-4.1-5.4-7.7C56.5,4.4,57.4,2,58.8,1.3z M106.8,14.7c1.7-0.1,3.2-1.1,4.1-2.6
				c1.3-2.4,0.7-5.7-1.2-7.4c-0.8,0.3-1.7,0.1-2.6,0.1l0,0c-1.3,0-2.5,0.1-3.6-0.5c-0.7,0.5-1.3,1.2-1.7,2c-0.7,1.3-0.9,2.9-0.5,4.3
				c0.1,0.1,0.1,0.2,0.1,0.3C103.6,11.3,105.7,12.7,106.8,14.7z M98,24.1c0.7,0.3,1.4,0.5,2.2,0.5c0.9,0,1.8-0.2,2.6-0.7
				c2.2-1.3,3.1-4,2.4-6.4c-0.9-0.2-1.9-0.5-2.7-1c-1.2-0.7-2.1-1.6-2.8-2.8c-0.8,0.1-1.5,0.3-2.2,0.7c-1.3,0.7-2.1,1.9-2.5,3.3v0.2
				C96.7,19.3,97.8,21.5,98,24.1z M89.9,29.7c2.6,0,4.7-1.9,5.2-4.3c-0.8-0.7-1.4-1.4-1.9-2.3c-0.7-1.2-1.1-2.5-1.1-3.9
				c-0.7-0.3-1.4-0.5-2.2-0.5c-1.4,0-2.7,0.6-3.7,1.6l-0.1,0.2c0.8,2.2,0.8,4.7-0.4,6.9C86.6,28.8,88.2,29.7,89.9,29.7z M73.6,24.8
				c0.4,1.4,1.3,2.6,2.5,3.3c0.8,0.4,1.7,0.7,2.6,0.7c1.5,0,2.9-0.7,3.9-1.8c-0.3-0.9-0.5-1.9-0.5-2.9c0-1.4,0.4-2.7,1-3.9
				c-0.5-0.6-1-1.2-1.7-1.6c-0.8-0.4-1.7-0.7-2.6-0.7c-0.6,0-1.1,0.1-1.6,0.3c-0.4,2.3-1.6,4.4-3.7,5.7
				C73.5,24.2,73.6,24.5,73.6,24.8z M64.8,19.8c1,1.6,2.7,2.7,4.6,2.7c0.6,0,1.1-0.1,1.6-0.3c0.2-1,0.5-1.9,1-2.8
				c0.6-1.2,1.6-2.2,2.7-2.9c-0.1-0.8-0.3-1.6-0.7-2.3c-0.7-1.3-2-2.3-3.4-2.6c-1.5,1.8-3.6,2.9-6,3c-0.1,0.3-0.2,0.6-0.3,0.9
				C63.9,16.9,64.1,18.4,64.8,19.8z M63.2,11.7c0.6-0.7,1.3-1.4,2.2-1.9c1.2-0.7,2.5-1.1,3.8-1.1c0.3-0.7,0.5-1.5,0.5-2.3
				c0-1.6-0.7-3-1.7-4C67.1,2.8,66.2,3,65.2,3c-1.3,0-2.6-0.3-3.8-1c-1.4,1-2.3,2.6-2.3,4.5C59.1,9.1,60.9,11.2,63.2,11.7z"/>
		</g>
		<g>
			<path class="st0" d="M22.3,1.2h-2.7c-0.1,0-0.1,0.7-0.1,1.2c0,4.7,3.7,8.5,8.3,8.5s8.3-3.8,8.3-8.6c0-0.4,0-1.2-0.1-1.2h-2.7
				c0.1,0,0.2,0.7,0.2,1.2c0,3.2-2.5,5.8-5.7,5.8c-3.1,0-5.7-2.6-5.7-5.9c0-0.5,0.1-1.2,0.2-1.2V1.2z"/>
			<path class="st0" d="M4,13.9c-0.1,0.2-0.1,0.4-0.2,0.6c-0.5,2.1-0.3,4.3,0.8,6.2c1.4,2.5,4,4.1,6.8,4.1c0.5,0,1.1-0.1,1.6-0.2
				c0,0.2,0,0.4,0.1,0.6c0.6,2.1,1.9,3.9,3.7,5c1.2,0.7,2.5,1.1,3.9,1.1c2,0,3.9-0.8,5.3-2.1c1.5,1.8,3.6,2.9,6,2.9
				c3.5,0,6.5-2.3,7.5-5.6c0.8,0.3,1.7,0.5,2.6,0.5c1.3,0,2.7-0.4,3.9-1.1c3-1.8,4.5-5.4,3.8-8.8c2.3-0.4,4.2-1.8,5.4-3.9
				c1.8-3.2,1.3-6.9-1-9.5c0.9-0.8,1.7-1.9,2.2-2.9h-2.9c-0.4,0-0.9,0.9-1.4,1.3C51,1.4,49.7,1,48.4,1c-1,0-1.9,0.3-2.8,0.7
				c-0.4-0.3-0.6-0.9-0.9-0.9h-3.3c0.1,0,0.1,0.7,0.1,1.2c0,7.9-6.1,14.2-13.7,14.2c-7.5,0-13.7-6.3-13.7-14.1
				c0-0.4,0.1-1.2,0.1-1.2H0.9C0.6,1.1,0.3,1.4,0,1.8v9.3C1,12.6,2.4,13.7,4,13.9z M43.6,11c-0.1-0.1-0.1-0.2-0.1-0.3
				c-0.4-1.4-0.2-3,0.5-4.3c0.4-0.8,1-1.5,1.7-2c1.1,0.5,2.3,0.5,3.6,0.5l0,0c0.9,0,1.8,0.2,2.6-0.1c1.9,1.7,2.5,5.1,1.2,7.4
				c-0.8,1.5-2.4,2.4-4.1,2.6C47.8,12.7,45.7,11.3,43.6,11z M37,17.8v-0.2c0.4-1.4,1.3-2.6,2.5-3.3c0.7-0.4,1.4-0.6,2.2-0.7
				c0.7,1.1,1.6,2.1,2.8,2.8c0.8,0.5,1.7,0.8,2.7,1c0.7,2.4-0.2,5.1-2.4,6.4c-0.8,0.4-1.7,0.7-2.6,0.7c-0.8,0-1.5-0.2-2.2-0.5
				C39.9,21.5,38.8,19.3,37,17.8z M27.8,27.4c1.1-2.2,1.2-4.7,0.4-6.9l0.2-0.2c1-1,2.3-1.6,3.7-1.6c0.8,0,1.5,0.2,2.2,0.5
				c0.1,1.4,0.4,2.7,1.1,3.9c0.5,0.9,1.2,1.7,1.9,2.3c-0.6,2.5-2.7,4.3-5.2,4.3C30.3,29.7,28.7,28.8,27.8,27.4z M15.6,24
				c2.1-1.3,3.3-3.4,3.7-5.7c0.5-0.2,1.1-0.3,1.6-0.3c0.9,0,1.8,0.2,2.6,0.7c0.7,0.4,1.3,1,1.7,1.6c-0.7,1.2-1,2.5-1,3.9
				c0,1,0.2,2,0.5,2.9c-1,1.1-2.4,1.8-3.9,1.8c-0.9,0-1.8-0.2-2.6-0.7c-1.3-0.7-2.1-1.9-2.5-3.3C15.7,24.5,15.6,24.2,15.6,24z
				 M6.4,15.4c0.1-0.3,0.2-0.6,0.3-0.9c2.4,0,4.6-1.2,6-3c1.4,0.3,2.7,1.3,3.4,2.6c0.4,0.8,0.6,1.5,0.7,2.3c-1.1,0.7-2,1.7-2.7,2.9
				c-0.5,0.9-0.8,1.8-1,2.8c-0.5,0.2-1.1,0.3-1.6,0.3c-1.9,0-3.7-1-4.6-2.7C6.2,18.4,6,16.9,6.4,15.4z M1.2,6.6
				c0-1.9,0.9-3.5,2.3-4.5c1.2,0.6,2.5,1,3.8,1c1,0,1.9-0.2,2.8-0.6c1,1,1.7,2.4,1.7,4c0,0.8-0.2,1.6-0.5,2.3
				c-1.4,0-2.7,0.4-3.8,1.1c-0.9,0.5-1.6,1.1-2.2,1.9C3,11.2,1.2,9.1,1.2,6.6z"/>
		</g>
	</g>
</g>
</svg>
